<svg id="Layer_1" data-name="Layer 1" xmlns="http://www.w3.org/2000/svg" viewBox="0 0 28 86"><defs><style>.cls-1{fill:#fff;}.cls-2{opacity:0.19;}.cls-3{fill:none;stroke:#fff;stroke-miterlimit:10;stroke-width:6px;}</style></defs><polygon class="cls-1" points="14.95 29.75 14.17 29.58 13.6 30.14 13.51 29.34 12.81 28.95 13.54 28.62 13.68 27.82 14.21 28.42 15 28.32 14.61 29.02 14.95 29.75"/><polygon class="cls-1" points="16.66 46.11 15.88 45.94 15.3 46.5 15.22 45.69 14.52 45.3 15.25 44.97 15.39 44.17 15.92 44.78 16.71 44.67 16.32 45.38 16.66 46.11"/><polygon class="cls-1" points="14.25 72.86 13.48 72.7 12.9 73.25 12.82 72.45 12.12 72.06 12.84 71.73 12.99 70.93 13.52 71.53 14.31 71.43 13.91 72.13 14.25 72.86"/><polygon class="cls-1" points="19.88 64.95 19.1 64.78 18.53 65.34 18.44 64.53 17.75 64.15 18.47 63.82 18.61 63.02 19.15 63.62 19.93 63.52 19.54 64.22 19.88 64.95"/><polygon class="cls-1" points="9.33 62.07 8.55 61.91 7.98 62.47 7.89 61.66 7.2 61.27 7.92 60.94 8.06 60.14 8.6 60.74 9.38 60.64 8.99 61.34 9.33 62.07"/><polygon class="cls-1" points="13.2 7.73 12.43 7.62 11.84 8.12 11.79 7.43 11.11 7.12 11.84 6.8 12.02 6.1 12.52 6.61 13.3 6.48 12.88 7.11 13.2 7.73"/><polygon class="cls-1" points="13.53 79.58 12.76 79.41 12.18 79.97 12.1 79.16 11.4 78.78 12.12 78.45 12.27 77.65 12.8 78.25 13.59 78.14 13.19 78.85 13.53 79.58"/><g class="cls-2"><path class="cls-3" d="M12.07,4a312.35,312.35,0,0,1,2.47,33.81c.2,10.92-.18,21.18-.93,30.68"/><path class="cls-1" d="M13.88,64.62,22.1,60.7l.15.28L16,73.1Q13.85,79.55,11.72,86q-.78-6.75-1.57-13.49L6.42,59.38l.15-.25Z"/></g></svg>