<?xml version="1.0" encoding="utf-8"?>
<!-- Generator: Adobe Illustrator 24.3.0, SVG Export Plug-In . SVG Version: 6.00 Build 0)  -->
<svg version="1.1" id="Layer_1" xmlns="http://www.w3.org/2000/svg" xmlns:xlink="http://www.w3.org/1999/xlink" x="0px" y="0px"
	 viewBox="0 0 144 69" style="enable-background:new 0 0 144 69;" xml:space="preserve">
<style type="text/css">
	.st0{fill-rule:evenodd;clip-rule:evenodd;fill:#231F20;}
	.st1{fill-rule:evenodd;clip-rule:evenodd;fill:#FEFEFE;}
	.st2{fill-rule:evenodd;clip-rule:evenodd;}
</style>
<desc>Created with Sketch.</desc>
<g id="Mocks">
	<g id="Mobile-Mission---no-chrome-Copy" transform="translate(-60.000000, -54.000000)">
		<g id="hat_logo" transform="translate(60.000000, 54.000000)">
			<g id="Hat" transform="translate(44.444444, 25.358974)">
				<path id="Fill-1" class="st0" d="M30.8,0.4c3.5,0.2,7,1.6,10.1,3.5c1.6,1.3,2.4,3.2,2.7,5c0.3,0,0.1,0.3,0.2,0.5
					c-0.3,0.2,0,0.5,0,0.8c0.3,0,0.2,0.3,0.2,0.5c0,0.3,0,0.6,0,0.8c0,0,0.1,0,0.1,0c0.3,0.5-0.2,0.8,0,1.3c1.7-2.1,4.1-3.3,6.3-4.2
					c0.4,1.3-0.2,2.6,0,4.1c-0.2,0.3-0.7,0.2-1,0.4c-1.4,0.3-2.4,1.6-3.8,1.9c0.6,0,1.3-0.2,1.7-0.5l0.2,0c0,0-0.1,0-0.1,0
					c0.6-0.2,1.3-0.4,2-0.5c0.2,0,0.3,0.2,0.5,0.2c-0.4,0.4-1.4,0.7-2.1,0.7c0,0.1-0.1,0.2,0,0.2c1.3-0.2,2.7-0.6,4.1-0.6
					c0.8,0,1.6-0.1,2.4,0.1l0,0l-0.2-0.3c-0.7-0.1-1.7,0.1-2.2-0.5l2.6,0c0.9,1.2,2.1,2.1,3,3.4l-0.1,0.2c-1.9-0.2-3.7-0.5-5.6-0.3
					c0.9,0.3,2,0.8,2.6,1.7c0.4,0.2-0.2,0.4,0.2,0.5c-0.1,0.3-0.1,0.7,0.1,1h0.1c-0.3-0.1-0.2,0.2-0.3,0.4v0.1
					c0.4,0.1,0.8-0.1,1.2,0.1c-0.4,0.4-1.5-0.1-1.4,0.7l0,0.1c0.5,0,1.1,0.2,1.7,0.1l-1.9,0.3l-0.2,0.4c0.3,0.1,1-0.2,1.2,0.2
					c0.1-0.1,0.4-0.1,0.6-0.1c-0.8,0.2-1.6,0.2-2.4,0.3l0.1-0.1c-0.4,0-0.7,0.5-1,0.6v0.1c0.7-0.1,1.7-0.1,2.4-0.1
					c-0.8,0.3-1.8,0.3-2.6,0.3c0,0,0.1,0,0.1-0.1c-0.5,0-0.9,0.4-1.4,0.6c0.5,0.2,1,0,1.6,0c-0.6,0.5-1.5,0.2-2.3,0.4
					c0.1-0.1,0.3-0.1,0.4-0.3l-1.5,0.7c0.2,0.1,0.8,0,1.1,0.1c-0.6,0.2-1.4,0.3-2,0.3c-0.7,0.3-1.5,0.6-2.3,0.8l0.1,0
					c-1.5,0.6-3.2,0.2-4.7,0.3c-4.4,0.6-8.9-0.2-13.3-0.2l-0.1,0.1c-3.4-0.2-6.6,0-10.1-0.1l-0.1-0.2c1.2,0,2.6,0,3.8,0l-0.1-0.1
					c-2.3-0.2-4.5-0.7-7-0.4c-0.2,0-0.4-0.3-0.7-0.2l0,0.2l-2.3-0.1l-0.2-0.2c1.2-0.2,2.6,0.1,3.8-0.1c-1.4-0.5-2.9-0.3-4.5-0.4
					l-2.6,0l-0.3-0.4l3.3,0c-1-0.6-2.6-0.4-3.8-0.6l-0.4-0.2L8,23.7c-1-0.8-2.3-0.3-3.6-0.4c-0.1,0-0.3-0.2-0.4-0.3
					c0.6-0.1,1.3,0,1.9-0.1c-0.7-0.9-2,0.2-2.7-0.7c0.2-0.2,0.7,0,1-0.1c-0.3-0.7-1.4-0.1-1.7-0.7L3,21.2c-0.2-0.7-1,0-1.2-0.8
					l0.3,0c0-0.2-0.2-0.4-0.4-0.5c-0.3,0-0.5,0-0.7-0.2c0.1-0.1,0.3,0,0.4,0c-0.3-0.3-0.4-0.9-0.8-1.2c-0.2-0.6-0.4-1.4-0.3-2.1
					c-0.2-0.2-0.1-0.5,0-0.7c1.2-1.3,3.2-1.2,4.9-1.7c2.1,0.1,4.2-0.5,6.3-0.1c0.3-0.9,0.1-2.2,0.6-3c-0.3-0.1,0-0.4,0-0.6
					c0.4-0.1,0.4-0.7,0.6-1h-0.1c0.2-0.7,0.9-0.9,1-1.6l-0.1,0c0.2-0.3,0.3-0.5,0.6-0.7c0.2-0.7,0.8-1.3,1.5-1.6
					C16,4.8,16.1,4,16.8,3.9c0.3-0.8,1.3-0.8,1.8-1.4h-0.3C20.5,1,23.1,0.2,26,0.2C27.7,0.2,29.3,0.1,30.8,0.4"/>
				<path id="Fill-3" class="st1" d="M30.9,0.9c0.8,0,1.6,0.3,2.4,0.5c0.6,0.2,1.4,0,1.9,0.4C34.9,2,34.4,1.6,34,1.9
					c0.2,0.2,0.3,0.6-0.1,0.7c-0.8,0.4-1.7,0.3-2.6,0.2V2.7c-1.1,0.2-2.5-0.5-3.4,0.1c1.2,0,2.6,0.7,3.8,0.3
					c0.7,0.1,1.6,0.1,2.3,0.3c0.1-0.1,0.3,0,0.4,0c0-0.3-0.7-0.3-0.3-0.7c0.8-0.1,1.4-0.5,2.2-0.6c0.6,0.2,1.2,0.4,1.9,0.7
					c0,0.2,0.2,0.3,0,0.5c-0.4,0.3-0.8-0.4-1.3,0c-0.6,0.1-1.2,0.3-1.8,0.6h-0.6c0,0-0.1,0.1-0.1,0.1c0.9,0,1.8,0,2.7-0.2
					c0.1,0,0.1,0.1,0,0.2c-1.1,0.1-2.2,0.6-3.4,0.4c-1,0.5-2-0.5-3-0.1c-0.3-0.2-0.7,0.1-1,0c-1.2,0-2.5-0.1-3.8-0.1
					c-0.1,0-0.1-0.1-0.2,0l0.4,0.3c1.6,0.3,3.2,0.3,4.7,0.4l0,0c-0.6,0.7-1.6,1.1-2.6,0.9c-0.4,0.2-0.9,0-1.3,0.5
					c0.5,0.4,1.2,0,1.7-0.1c0.3,0.4,0.7,0.1,1.1,0.1c0-0.8,1.3-0.4,1.1-1.3c1.2-0.2,2.6,0.2,3.8,0c1.9-0.1,3.6-0.7,5.4-0.9
					c0.3,0.3,0.7,0.5,0.9,0.8c-0.2-0.1-0.6-0.1-0.9,0C40,5,39.8,4.9,39.5,4.9c-0.5,0.5-1.2,0-1.8,0.4c-0.2-0.1-0.5,0-0.7,0
					c0,0.4-0.5,0.2-0.7,0.3C35.1,5.8,33.9,6,32.7,6c-0.4-0.4-1,0.3-1.5-0.1c-0.4,0-1,0.1-1.3,0.3c0.5,0.4,1.9-0.2,1.6,1
					c-0.6,0.2-1.2,0-1.9,0c-0.9,0-1.9,0.2-2.9-0.1c-0.4,0.2-0.9,0-1.2,0.2c0.5,0.3,1.1,0,1.6,0.1c1.6,0.1,3.2,0.2,4.7,0.4l1.2,0
					c0.9,0,1.8,0,2.6,0.1c1-0.3,2.1-0.5,3-0.9C39.3,7,40,7.3,40.6,6.9c0.5-0.1,1.1-0.1,1.5-0.6c0.3-0.1,0.3,0.2,0.5,0.4
					c-0.7,1.2-2,0.1-2.8,1c-0.5,0-1.2,0-1.4,0.5c-0.3-0.3-0.7-0.4-1.1-0.3c-0.1,0.1-0.3,0.2-0.3,0.4c0.2,0.2-0.1,0.4-0.1,0.5
					c-0.4,0.2-1.1-0.4-1.3,0.1c0.1,0.2,0.1,0.5,0,0.6c-0.2,0.3-0.5-0.1-0.7-0.1c-0.1-0.1-0.1-0.3,0-0.3c0.1,0,0.3-0.1,0.2-0.2
					c-0.3-0.3-0.8,0.1-1.1-0.1c-0.7,0,0,0.9-0.7,0.9c-0.4-0.2-0.6-0.7-1-0.7c-0.3-0.3-0.7-0.6-1.1-0.4c0,0.2-0.4,0.4-0.1,0.6
					l0.1-0.4c0.1,0.4,0.9,0.4,0.8,0.8c-0.2,0.1-0.6,0.1-0.9,0c-0.4-0.2-0.1-0.8-0.6-0.8c-0.5,0.4,0.2,0.8-0.1,1.3
					c0,0-0.1-0.2-0.2-0.1c-0.1-0.3,0.2-0.7,0-0.8l0-0.1c0-0.1-0.2-0.2-0.3-0.2c-0.2,0.7-0.6-0.1-0.9,0.2c-0.2,0-0.2-0.2-0.3-0.3
					c-0.1,0-0.5,0-0.5,0.3c0.2,0.4,0,1.3,0.7,1.2c0.1,0,0.1-0.1,0.2,0c-0.1-0.2,0.1-0.4,0.4-0.3c0.1,0,0.2,0,0.2,0.1
					c0,0.1-0.1,0.3-0.1,0.4c0.1,0.1,0.5,0.1,0.5,0.4c-0.8,0.2-1.5-0.4-2.3,0c0.3,0.3,0.9,0,1.3,0.2c0.3-0.4,0.5,0.3,0.9,0
					c0.4,0.2,0.8,0.1,1.3,0.1l0.2-0.3c0.4,0.3,0.6,0.9,1,1c-1.2-0.1-2.5-0.2-3.6,0c0.4,0.6,1.1,0.3,1.7,0.6c1.1,0.3,2.4,0.2,3.5,0.5
					c0,0,0,0.1,0,0.2l-2.8,0.1c-0.7-0.1-1.3-0.5-2-0.3c-0.4-0.3-0.5-1-1.1-0.9c-0.1,0.3,0.3,0.3,0.3,0.5c0.2,0,0.2,0.2,0.3,0.4
					c0,0.3-0.3,0.1-0.5,0.3c-0.6-0.2-0.8-0.8-1.3-1.1c-0.1-0.1,0-0.4-0.2-0.5c-0.2,0-0.2,0.4-0.1,0.5c0.8,0.9,1.4,2,2.6,2.4
					c0.8-0.1,1.8-0.1,2.6,0c0,0.1,0.1,0.1,0,0.2l-1.5,0.2c-0.2,0.1-0.2,0.3-0.2,0.4c-0.3,0.2-0.3-0.3-0.6-0.3l-1.8,0
					c-1-0.4-2.4,0-3.2-0.7c-0.3,0.1-0.6-0.3-0.8-0.1c0.2,0.6,0.9,0.9,1.5,0.9c0.9,0.1,1.7,0,2.4,0.6c0,0.2-0.4,0.1-0.5,0.3L26.6,16
					c-1.1-0.1-2.4-0.3-3.6,0l0.1,0.1c0.7,0.1,1.5,0,2.2,0.3c0.4-0.1,0.9,0.2,1.3,0.1v0.1c-0.3,0.1-0.6-0.1-0.9,0
					c0.7,0.2,1.5,0.4,2.1,0.1c0.9,0.2,1.7,0.3,2.6,0.3l0.2,0.1c-0.6,0.2-1.2-0.2-1.8,0c-1.3,0-2.5-0.3-3.8,0c0.1,0.4,0.6,0,0.9,0.3
					l0.8-0.1c0.5,0.1,1,0.2,1.5,0.3v0.1c-3.8,0-7.5-0.7-11-1.5c-1.7-0.3-3.4-0.6-4.7-1.7c0.3-0.1,0.6,0.1,0.9,0.2
					c1.1,0.2,2.2,0.5,3.2,0.7c0.2-0.1,0-0.2-0.1-0.2c-1.2-0.2-2.3-0.8-3.4-1.1c-0.6-0.2-0.7-0.8-0.9-1.3c0-0.1,0-0.3,0-0.5
					c0.6,0.7,1.8,0.3,2.3,1.1c0.3,0,0.7,0,0.9,0c-0.5-0.4-1-0.6-1.6-0.8l-1.3-0.9c0.1-0.5,0-0.9,0.3-1.3c0.4,0.1,0.7,0.8,1.1,0.6
					c0.1-0.6-0.9-0.7-0.9-1.3c-0.2-0.3,0.2-0.6,0.3-0.8c0.4-0.2,0.8,0.3,1.2,0.2c0-0.5-0.8-0.4-0.8-1c0.7-0.8,0.9-2.1,2-2.6
					c0.7-1.1,1.7-2.1,2.9-2.5c0.5-0.4,1-1,1.7-1.1c0.6-0.4,1.5-0.4,2.2-0.8c1.8-0.6,3.7-0.4,5.5-0.6C28.9,0.7,29.9,0.9,30.9,0.9"/>
				<path id="Fill-9" class="st0" d="M24.2,3.7L24.2,3.7L24.2,3.7C24.1,3.7,24.2,3.7,24.2,3.7"/>
				<path id="Fill-11" class="st0" d="M22.4,4.5c-0.3,0.3-0.9,0-1.3-0.2C21.6,4.4,22,4.4,22.4,4.5"/>
				<path id="Fill-13" class="st1" d="M41,5.4c-0.2,0.2-0.4-0.1-0.6-0.1c0-0.1-0.1-0.3,0-0.3C40.7,5.3,41,4.9,41,5.4"/>
				<path id="Fill-15" class="st0" d="M25.8,5.1c-0.3,0.3-0.8,0.2-1.2,0.1C25,5.1,25.4,5.1,25.8,5.1"/>
				<path id="Fill-17" class="st1" d="M39.9,5.5c0.1,0.2-0.1,0.2-0.2,0.3L39,5.5C39.1,5.1,39.6,5.5,39.9,5.5"/>
				<path id="Fill-19" class="st1" d="M38.1,5.6v0.2c-0.2,0-0.5,0.1-0.6-0.1c0-0.2,0.2-0.1,0.3-0.2C37.9,5.5,38,5.5,38.1,5.6"/>
				<path id="Fill-21" class="st0" d="M16.8,5.7C16.8,5.8,16.8,5.8,16.8,5.7L16.8,5.7C16.8,5.7,16.9,5.7,16.8,5.7"/>
				<path id="Fill-23" class="st1" d="M41,6.2c-0.1,0.1-0.4,0.1-0.6,0.1c-0.1,0,0-0.2,0-0.3c0.2,0.1,0.3,0,0.6,0l-0.1-0.2
					C41,5.9,41,6,41,6.2"/>
				<path id="Fill-25" class="st0" d="M24,6.3c0.1,0.1,0.3,0.1,0.3,0.3c-1.5,0.3-3.5,0.4-4.7-0.8C20.9,6.8,22.3,6.6,24,6.3"/>
				<path id="Fill-27" class="st0" d="M26.9,6.1c-0.3,0-0.8,0-1-0.1c0.1-0.2,0.4,0,0.6-0.1C26.7,5.9,26.9,6,26.9,6.1"/>
				<path id="Fill-29" class="st1" d="M39.2,6.5c-0.4,0.5-1-0.1-1.4-0.2l0-0.1C38.1,5.7,38.6,6.5,39.2,6.5"/>
				<path id="Fill-31" class="st1" d="M37.3,6.9c0,0.1,0,0.3-0.2,0.3c-0.8,0.2-1.6-0.2-2.2-0.6c0.3-0.4,1-0.1,1.4-0.4
					C36.8,6.1,37.1,6.6,37.3,6.9"/>
				<path id="Fill-33" class="st1" d="M34.4,6.8c0.3,0.1,0.9,0.1,0.9,0.5c-0.3,0.2-0.7,0-1,0.2c-0.7,0.3-1.5-0.1-2.1-0.2
					c0.1-0.4-0.5-0.5-0.2-0.9C32.9,6.4,33.6,6.5,34.4,6.8"/>
				<path id="Fill-35" class="st0" d="M36.8,6.8c-0.2,0-0.4,0.1-0.6,0C36.3,6.6,36.6,6.7,36.8,6.8C36.8,6.7,36.8,6.8,36.8,6.8"/>
				<path id="Fill-37" class="st0" d="M14.9,7.3l-0.3,0l0.1-0.2C14.8,7.1,14.9,7.3,14.9,7.3"/>
				<path id="Fill-39" class="st0" d="M25.1,7.2L25.1,7.2L25.1,7.2z"/>
				<path id="Fill-41" class="st0" d="M19.7,7.7c0.3,0.3,0.9,0,1,0.4c-0.4,0.2-0.7-0.3-1.2-0.3l-0.9-0.2c0.2-0.3,0.4,0.1,0.7,0.1
					L19.7,7.7z"/>
				<path id="Fill-43" class="st0" d="M15.7,7.6L15.7,7.6l-0.2,0C15.6,7.5,15.7,7.6,15.7,7.6"/>
				<path id="Fill-45" class="st0" d="M22.1,8.5C22,8.6,22,9,22.1,9.1c0.3,0,0.7,0,1-0.2c0,0,0,0,0.1,0c-0.1,0.4-0.7,0.2-0.8,0.7
					c-0.3-0.2-0.8-0.3-0.9-0.7c0-0.4,0-0.8,0.2-1.1C22.2,7.8,21.9,8.3,22.1,8.5"/>
				<path id="Fill-47" class="st0" d="M24.6,8.5c0-0.4,0.5-0.3,0.7-0.2c0,0.1,0.2,0.2,0.3,0.4c0.3,0,0.1-0.4,0.3-0.6
					c0.3,0.1,0.3,0.7,0.8,0.5c0.1-0.4,0.4,0,0.7,0c0,0.5-0.3,1.1,0.3,1.4l0.1,0.3c-0.4-0.1-0.9,0.1-1.1-0.3c-0.3,0.1-0.6,0-0.9-0.1
					c-0.7-0.3,0.1-1.2-0.7-1.3l-0.8,0.9c-0.6,0-0.5-0.8-0.7-1.2c0-0.1,0.3-0.1,0.4,0C24.1,8.4,24.4,8.9,24.6,8.5"/>
				<path id="Fill-49" class="st1" d="M40.7,8.6c-0.3,0.4-1,0.2-1.4,0.2c-0.1-0.1-0.2-0.1-0.2-0.3c0.4-0.2,1-0.1,1.5-0.1L40.7,8.6z"
					/>
				<path id="Fill-51" class="st1" d="M38.1,9.4c0,0.3-0.4,0.1-0.5,0.3c-0.3-0.1,0-0.5,0.1-0.6C37.9,9.1,38.1,9.2,38.1,9.4"/>
				<path id="Fill-53" class="st1" d="M41,9.2c-0.2,0.1-0.5,0.6-0.8,0.4c-0.1,0-0.1-0.2-0.1-0.3C40.4,9.1,40.7,9.1,41,9.2"/>
				<path id="Fill-55" class="st1" d="M50,9.9c0,0-0.1-0.2-0.2,0c0,0.2-0.4,0.2-0.6,0.3c-0.1,0.2-0.2,0.4-0.2,0.7
					c0.3,0,0.6-0.2,0.9-0.3l0.1-0.5c0.1,0.1,0,0.4,0,0.7c-0.3,0.3-1,0.3-1.2,0.7l-0.1-0.1c-0.6,0.4-1.7,0.2-1.6,1.2
					c0.5,0,1-0.6,1.6-0.6c0.4-0.2,0.9-0.2,1.3-0.6l0,0.3c-1,0.2-1.9,0.8-2.8,1.3c-0.2,0.1-0.2,0.4-0.1,0.6c0.9-0.6,1.8-1,2.8-1.2
					c-1.1,0.4-2.2,1.1-3.1,1.5l0,0c-0.4,0.3-1.1,0.6-1.4,1.2c0-0.5,0.5-0.8,0.9-1.1c0.3,0,0.7-0.2,0.8-0.5l-0.1-0.3
					c-0.7,0.4-1.4,0.8-2,1.6c0-0.6,0.7-0.8,1.1-1.3c-0.1-0.1,0.1-0.2,0-0.3c-0.5,0.4-1.2,0.7-1.4,1.3c-0.1-0.6,0.8-0.8,1-1.3
					c0.2-0.4,0.9-0.7,0.7-1.2c-0.8,0.5-1.2,1.2-1.9,1.7l0.1-0.6c0.4,0,0.1-0.4,0.4-0.5c1.5-1.4,3.4-2.4,5.2-3L50,9.3
					C50,9.6,50.2,9.7,50,9.9"/>
				<path id="Fill-57" class="st1" d="M34.7,10.4c0,0.4-0.6,0.1-0.7,0.4c-0.2,0-0.4-0.1-0.5-0.3c0-0.3,1.2-0.5,0.4-0.9
					c0-0.2,0.3-0.2,0.4-0.1C34.4,9.8,34.4,10.2,34.7,10.4"/>
				<polygon id="Fill-59" class="st1" points="33.2,9.8 33.2,9.7 33.2,9.7 				"/>
				<path id="Fill-61" class="st1" d="M36.4,10.1L36.4,10.1l-0.7,0.1c0-0.1,0.2-0.3,0.3-0.4C36.3,9.8,36.4,10,36.4,10.1"/>
				<path id="Fill-63" class="st1" d="M30.7,10.8c0,0.1-0.1,0.3-0.2,0.2c-0.2,0-0.5-0.2-0.5-0.5l0.2-0.1l-0.1-0.3
					C30.5,10.2,30.5,10.6,30.7,10.8"/>
				<path id="Fill-65" class="st1" d="M43,10.3c-0.2,0.2-0.6,0.6-0.9,0.4C42.2,10.3,42.8,10.3,43,10.3"/>
				<path id="Fill-67" class="st0" d="M47.5,11.4L47.5,11.4c-0.1-0.9,1-0.6,1.3-1.2C49.1,11.2,47.9,11.1,47.5,11.4"/>
				<path id="Fill-69" class="st1" d="M32.6,11c-0.1,0.2-0.5,0.1-0.8,0.2c-0.3,0-0.5-0.3-0.6-0.6v-0.1C31.8,10.4,32.5,10.3,32.6,11"
					/>
				<path id="Fill-71" class="st1" d="M31,10.7L31,10.7c-0.1,0.1-0.3,0-0.2-0.1C30.9,10.6,30.9,10.7,31,10.7"/>
				<path id="Fill-73" class="st0" d="M26.8,10.8c-0.2,0.1-0.7,0.1-0.8-0.1L26.8,10.8z"/>
				<path id="Fill-75" class="st1" d="M39.3,11c-0.3,0-0.7,0-1,0c0.2-0.2,0.7-0.3,1-0.3C39.5,10.7,39.4,11,39.3,11"/>
				<path id="Fill-77" class="st0" d="M27.4,10.8c0,0.1-0.1,0.1-0.2,0.1l0,0C27.2,10.7,27.3,10.7,27.4,10.8"/>
				<path id="Fill-79" class="st1" d="M37.1,11.2L37.1,11.2c-0.5,0.1-0.9,0.5-1.5,0.3c-0.1,0.3-0.4,0-0.6,0.2
					c-0.3,0.4-0.9,0.2-1.3,0.3c-0.2,0-0.6-0.1-0.8-0.1c0.4-0.3,0.9,0.1,1.3-0.3c0.6-0.1,1.3-0.4,2-0.5
					C36.3,10.9,36.9,10.9,37.1,11.2"/>
				<path id="Fill-81" class="st0" d="M18.1,11.2L18.1,11.2c-0.1,0-0.3,0-0.2-0.1C17.9,11.1,18,11.2,18.1,11.2"/>
				<path id="Fill-83" class="st0" d="M46.9,11.8c-0.2,0.1-0.5,0.2-0.7,0.3c-0.1-0.5,0.5-0.8,0.9-0.9C47.2,11.4,47,11.6,46.9,11.8"
					/>
				<path id="Fill-85" class="st0" d="M18.4,11.2l0.2,0L18.4,11.2z"/>
				<path id="Fill-87" class="st0" d="M25,13.1l-0.1,0.1c-0.6-0.4-0.5-1.3-0.7-1.9c0-0.1,0.1,0,0.2,0C24.8,11.9,24.4,12.7,25,13.1"
					/>
				<path id="Fill-89" class="st0" d="M14,11.5L14,11.5l0-0.2C14.1,11.4,14.2,11.5,14,11.5"/>
				<path id="Fill-91" class="st1" d="M49.4,11.4l-0.5,0.2L49.4,11.4z"/>
				<path id="Fill-93" class="st0" d="M22.5,11.6l-0.1,0l0.1-0.1C22.5,11.5,22.5,11.5,22.5,11.6"/>
				<path id="Fill-95" class="st1" d="M42.9,11.6c0,0,0,0.1,0,0.1c-0.1,0-0.2-0.2-0.1-0.3C42.9,11.4,42.9,11.5,42.9,11.6"/>
				<path id="Fill-97" class="st0" d="M27.5,11.7c-0.1,0-0.3,0.3-0.5,0c-0.1,0-0.1-0.2,0-0.2C27.2,11.5,27.3,11.6,27.5,11.7"/>
				<polygon id="Fill-99" class="st1" points="39.4,11.7 39.4,11.6 39.4,11.7 				"/>
				<path id="Fill-101" class="st0" d="M28,11.7l-0.1,0.1v-0.1C27.9,11.7,28,11.7,28,11.7"/>
				<path id="Fill-103" class="st1" d="M41.1,11.7c-0.2,0.3-0.7,0.3-0.9,0.4c-0.1,0-0.1-0.1,0-0.2C40.4,11.8,40.7,11.7,41.1,11.7"/>
				<path id="Fill-105" class="st1" d="M38.1,11.8c0,0.2-0.3,0-0.4,0.1c-0.6,0.2-1.3,0.3-1.9,0.3c0.1-0.2,0.4-0.1,0.6-0.3
					C36.9,11.9,37.6,11.7,38.1,11.8"/>
				<path id="Fill-107" class="st0" d="M22.7,12L22.7,12c0,0.1-0.2,0-0.1-0.1C22.7,11.9,22.7,11.9,22.7,12"/>
				<path id="Fill-109" class="st1" d="M39.9,12C39.9,12.1,39.8,12.1,39.9,12l-0.1,0.1l0-0.2C39.8,11.9,39.9,11.9,39.9,12"/>
				<path id="Fill-111" class="st0" d="M26,12c-0.1,0-0.3,0.4-0.5,0.1C25.5,12,25.8,11.9,26,12"/>
				<path id="Fill-113" class="st1" d="M39.2,12.2c-0.5,0.5-1.2,0.1-1.9,0.3c-0.1,0,0-0.1,0-0.1c0.1,0.2,0.3,0,0.4-0.1
					C38.3,12.4,38.8,11.9,39.2,12.2"/>
				<path id="Fill-115" class="st0" d="M46.8,12.7c-0.3,0.2-0.5,0.4-0.8,0.5c0-0.5,0.5-0.7,0.8-1C46.9,12.3,46.8,12.5,46.8,12.7"/>
				<path id="Fill-117" class="st0" d="M23.3,12.7c0,0.1,0,0.2-0.1,0.2c-0.1-0.2-0.5-0.3-0.4-0.6C23.1,12.3,23.2,12.5,23.3,12.7"/>
				<polygon id="Fill-119" class="st1" points="42.7,12.4 42.6,12.3 42.7,12.3 				"/>
				<path id="Fill-121" class="st0" d="M18,13.2c-0.3,0.1-0.7-0.1-0.9-0.2l-0.2-0.2C17.3,12.8,17.7,12.8,18,13.2"/>
				<path id="Fill-123" class="st1" d="M42.7,12.9c-0.2,0-0.3,0.3-0.5,0.2c0-0.1-0.1-0.1-0.1-0.2C42.3,12.8,42.6,12.7,42.7,12.9"/>
				<path id="Fill-125" class="st1" d="M40.1,13.4c-0.2-0.1-0.5,0.3-0.6,0c0.1-0.4,0.7-0.3,1-0.6C40.6,13,40.5,13.4,40.1,13.4"/>
				<path id="Fill-127" class="st1" d="M42.8,13c0,0.1-0.1,0.1-0.2,0.1C42.6,13.1,42.7,13,42.8,13"/>
				<path id="Fill-129" class="st0" d="M19.7,13.4c-0.4,0.4-1,0-1.5-0.1C18.7,13.2,19.3,13.2,19.7,13.4L19.7,13.4z"/>
				<path id="Fill-131" class="st0" d="M26.2,13.4c-0.2,0-0.8,0.1-0.8-0.2C25.7,13.2,26.1,13.2,26.2,13.4"/>
				<path id="Fill-133" class="st1" d="M43.7,13.4c-0.1,0.1-0.3,0.1-0.4,0c-0.1,0-0.1-0.2,0-0.3C43.4,13.2,43.6,13.2,43.7,13.4"/>
				<path id="Fill-135" class="st1" d="M35.6,13.3c-0.2,0.1-0.6,0.1-0.9,0.2l-0.2-0.3C34.9,13.3,35.3,13.1,35.6,13.3"/>
				<path id="Fill-137" class="st1" d="M39.2,13.3c-0.2,0.1-0.4,0.2-0.6,0.1c0,0-0.1-0.1,0-0.2C38.8,13.3,39.1,13.1,39.2,13.3"/>
				<path id="Fill-139" class="st0" d="M20.9,13.4h-0.1H20.9C20.9,13.4,20.9,13.4,20.9,13.4"/>
				<path id="Fill-141" class="st1" d="M34.7,13.5c0,0,0.1,0.1,0,0.2L32.3,14l-0.1,0.1l0-0.2c-0.5,0-1.4,0-1.5-0.5
					c0.8-0.2,1.7,0.1,2.5,0C33.7,13.6,34.2,13.4,34.7,13.5"/>
				<path id="Fill-143" class="st1" d="M30.3,13.7c0,0.1,0,0.2-0.1,0.2c-0.2-0.2-0.3,0.1-0.5-0.1c-0.3,0.6-0.5-0.3-0.9-0.1
					C29.3,13.5,29.9,13.1,30.3,13.7"/>
				<path id="Fill-145" class="st1" d="M37.3,13.5c0,0-0.1,0-0.2,0C37.1,13.5,37.2,13.4,37.3,13.5"/>
				<path id="Fill-147" class="st0" d="M22.5,13.6c0,0.1-0.2,0-0.3,0C22.2,13.5,22.4,13.5,22.5,13.6"/>
				<path id="Fill-149" class="st1" d="M37.9,13.7c0,0.1,0,0.1-0.1,0.1l-0.6-0.2C37.3,13.5,37.8,13.5,37.9,13.7"/>
				<path id="Fill-151" class="st0" d="M24,13.8c-0.1,0-0.2,0.1-0.3,0c-0.2,0-0.1-0.3,0-0.3C23.7,13.6,24.1,13.5,24,13.8"/>
				<path id="Fill-153" class="st1" d="M37.2,13.9c-0.5-0.1-1,0.3-1.4,0.2c0-0.1-0.2-0.2-0.1-0.3c0.4-0.2,1,0,1.5-0.1
					C37.1,13.7,37.2,13.8,37.2,13.9"/>
				<path id="Fill-155" class="st0" d="M52.2,14.2c-0.4,0.1-1.1,0.1-1.6,0.2L49.8,14C50.5,13.8,51.6,13.4,52.2,14.2"/>
				<path id="Fill-157" class="st1" d="M41.3,13.8c-0.2,0.3-0.4,0.4-0.7,0.4l-0.4-0.1c0-0.3,0.4-0.2,0.5-0.4
					C40.9,13.8,41.1,13.7,41.3,13.8"/>
				<path id="Fill-159" class="st0" d="M25.1,13.8c0,0.1-0.1,0.2-0.2,0.2l-0.2,0C24.6,13.8,24.9,13.8,25.1,13.8"/>
				<path id="Fill-161" class="st0" d="M26.1,13.8c0.1,0.1,0,0.3-0.2,0.3L25.6,14l0-0.2C25.8,13.9,26,13.8,26.1,13.8"/>
				<path id="Fill-163" class="st0" d="M19.7,14.1c0,0,0,0.1,0,0.1h-0.1l0-0.2C19.6,14,19.7,14,19.7,14.1"/>
				<path id="Fill-165" class="st0" d="M27.9,14.3c-0.3,0.1-0.9,0-1.1-0.2C27,13.9,27.5,14.2,27.9,14.3L27.9,14.3z"/>
				<path id="Fill-167" class="st0" d="M21.6,14.3L21.6,14.3c-0.5,0-1.1,0-1.6-0.2c0.2-0.3,0.7,0.1,1,0.1
					C21.2,14.2,21.4,14.3,21.6,14.3"/>
				<path id="Fill-169" class="st1" d="M40,14.1C40,14.2,39.9,14.2,40,14.1L40,14.1C39.9,14.1,40,14.1,40,14.1"/>
				<path id="Fill-171" class="st1" d="M42.2,14.4l-0.1,0.4c-0.1,0-0.4,0-0.3-0.2l0.1-0.3C42,14.3,42.1,14.3,42.2,14.4"/>
				<path id="Fill-173" class="st1" d="M44.1,14.6c0-0.1-0.4,0.1-0.3-0.2C43.8,14.1,44.2,14.4,44.1,14.6"/>
				<path id="Fill-175" class="st1" d="M11.8,14.7l0,0.5c-2-0.8-4.4,0.4-6.5,0c-0.9,0-1.5,0.8-2.4,0.8c-0.2,0-0.3,0.3-0.3,0.5
					l0.1,0.1l0-0.1c0,0.4,0.4,0.8,0.8,1.1c0.5,0.3,0.9,0.8,1.6,0.8c0.5,0.4,1.1,0.8,1.8,0.9c0.5,0,0.9,0.4,1.5,0.3
					c0.7,0.3,1.2,1,2,1.1c0.3,0.4,0.9,0.1,1.3,0.3c0.4,0.2,0.8,0.2,1,0.7c0,0.1,0,0.2-0.2,0.3c-0.5,0-0.6-0.5-1-0.4
					c-0.3-0.3-0.9-0.1-1.3-0.3c-0.9-0.2-1.4-1.1-2.3-1.2c-1.3-0.4-2.7-0.9-3.9-1.6c-0.6,0.1-0.8-0.7-1.3-0.8
					c-0.4-0.3-0.7-0.7-1.2-0.8c-0.4-0.2-0.5-0.7-0.3-1c0.3-1.1,1.9-0.3,2.5-1c0.5,0,0.9-0.4,1.4-0.4c1.4,0.4,3,0,4.5-0.1
					C10.4,14.5,11.1,14.2,11.8,14.7"/>
				<path id="Fill-177" class="st0" d="M22.2,14.5c0,0.1-0.2,0-0.3,0C21.9,14.3,22.1,14.5,22.2,14.5"/>
				<path id="Fill-179" class="st0" d="M22.5,14.5L22.5,14.5l-0.1,0C22.4,14.5,22.5,14.5,22.5,14.5"/>
				<path id="Fill-181" class="st1" d="M38.9,14.7c-0.3,0.6-0.7,0-1.1,0.1l0.1-0.2C38.2,14.9,38.5,14.3,38.9,14.7"/>
				<path id="Fill-183" class="st1" d="M44.5,15.1c0-0.1-0.1-0.1,0-0.2C44.4,14.9,44.4,14.9,44.5,15.1l0.2-0.3L44.5,15.1z"/>
				<path id="Fill-185" class="st1" d="M34.4,14.9c0,0.2-0.2,0.2-0.4,0.2c-0.1,0-0.1,0-0.2-0.1C33.8,14.7,34.3,14.8,34.4,14.9"/>
				<path id="Fill-187" class="st1" d="M36.1,14.9c-0.1,0.2-0.5,0.2-0.7,0.1c0,0,0-0.1-0.1-0.1C35.5,14.9,35.9,14.7,36.1,14.9"/>
				<path id="Fill-189" class="st1" d="M35.1,14.9C35.1,14.9,35.1,15,35.1,14.9L34.9,15C34.8,14.8,35.1,14.8,35.1,14.9"/>
				<path id="Fill-191" class="st1" d="M43.1,14.8c-0.1,0.3-0.1,0.6-0.4,0.7c-0.1,0-0.4,0-0.3-0.2C42.5,14.9,42.9,15.1,43.1,14.8"/>
				<path id="Fill-193" class="st1" d="M33.6,15c-0.2,0.2-0.7,0.3-1.1,0.3c-0.1-0.1-0.5,0-0.4,0.2c-0.2,0.2-0.5,0-0.8-0.1
					c-0.2,0.1-0.6-0.1-0.7,0.1l0.1,0.2c1,0.7,2.2,0.2,3.3,0.2c0.3,0.1,0.8-0.5,0.8,0.1c-0.6,0.1-1.2,0-1.7,0.4
					c-0.6-0.2-1.1,0.5-1.6-0.1c-0.7,0.2-1-0.5-1.7-0.4c-0.2-0.4,0.5-0.5,0.7-0.8C31.7,14.9,32.6,15,33.6,15"/>
				<path id="Fill-195" class="st1" d="M56.4,16.7c-0.6-0.1-0.9-0.9-1.5-1.3c-0.9,0.1-1.7-0.1-2.6,0L52,15.2c0.9,0,1.8-0.2,2.7,0
					c0.2-0.1-0.1-0.2,0-0.3L56.4,16.7z"/>
				<path id="Fill-197" class="st0" d="M23.3,15.2l0.2,0.2c-0.4,0.5-1,0-1.6,0c-0.6,0-1.3-0.2-1.9-0.4v0
					C21.1,15.1,22.2,15.2,23.3,15.2"/>
				<path id="Fill-199" class="st0" d="M19,15.5c0.6-0.2,1.1,0.3,1.6,0.4c0.6,0,1,0.3,1.6,0.4c-1.7-0.1-3.4-0.8-5-1.3V15
					C17.8,15.1,18.3,15.5,19,15.5"/>
				<path id="Fill-201" class="st1" d="M37,15.1c0,0.1-0.1,0.1-0.2,0.1l0-0.1C36.7,15,36.9,15,37,15.1"/>
				<path id="Fill-203" class="st1" d="M40.8,15.1c-0.3,0.2,0,0.6-0.4,0.6c-0.3-0.2-0.7,0.2-0.7-0.3c0.1-0.1,0.3,0,0.4,0
					c0.1-0.2,0.6-0.1,0.5-0.4C40.7,15,40.8,15,40.8,15.1"/>
				<path id="Fill-205" class="st1" d="M37.2,15.2L37.2,15.2c-0.1-0.1,0-0.1,0.1-0.1C37.3,15.1,37.3,15.2,37.2,15.2"/>
				<polygon id="Fill-207" class="st1" points="44.7,15.2 45.2,15.1 45.3,15.1 				"/>
				<path id="Fill-209" class="st1" d="M52.4,15.1h0.3H52.4z"/>
				<path id="Fill-211" class="st1" d="M41.5,15.1c0.2,0.3-0.2,0.3-0.4,0.4C41.1,15.3,41.1,14.9,41.5,15.1"/>
				<path id="Fill-213" class="st1" d="M52,15.1h0.3H52z"/>
				<path id="Fill-215" class="st1" d="M47.3,15.2c-0.3,0.1-0.7,0.4-1,0.3C46.6,15.4,47,15.2,47.3,15.2"/>
				<path id="Fill-217" class="st1" d="M51.7,15.3L51.7,15.3c-0.9,0.2-1.7,0.3-2.4,0.5L49,15.7c0.7-0.2,1.7-0.6,2.4-0.3
					C51.5,15.3,51.6,15.3,51.7,15.3"/>
				<path id="Fill-219" class="st1" d="M11.7,15.8c0,0,0,0.1,0,0.2V15.8c-0.4,0.1-0.9,0.1-1.3,0l-0.9-0.4
					C10.1,15.6,11.2,15.2,11.7,15.8"/>
				<path id="Fill-221" class="st1" d="M28.8,15.7c-0.4,0.1-0.9,0.1-1.2,0c0-0.3,0.4-0.1,0.5-0.2C28.3,15.5,28.7,15.3,28.8,15.7"/>
				<path id="Fill-223" class="st1" d="M44,15.5c0.1,0.2-0.1,0.4-0.3,0.5c-0.1,0-0.2-0.1-0.2-0.1C43.5,15.7,43.7,15.4,44,15.5"/>
				<path id="Fill-225" class="st1" d="M38.9,15.9c0,0.1-0.2,0.1-0.3,0.1c-0.1,0-0.1-0.2,0-0.3C38.7,15.8,38.9,15.7,38.9,15.9"/>
				<path id="Fill-227" class="st1" d="M45.4,15.7c-0.1,0-0.5,0.2-0.8,0.2C44.8,15.8,45.1,15.7,45.4,15.7"/>
				<path id="Fill-229" class="st1" d="M38,15.9c-0.4-0.1-0.9,0.6-0.9,0c0.3-0.1,0.6,0,0.9-0.2C38,15.7,38.1,15.9,38,15.9"/>
				<path id="Fill-231" class="st1" d="M41.8,15.9c0,0.4-0.5-0.1-0.6,0.3c0,0-0.2,0-0.1-0.1V16C41.4,16.2,41.5,15.4,41.8,15.9"/>
				<path id="Fill-233" class="st1" d="M48.4,15.9c0,0.4-0.6,0-0.9,0.3h-0.2C47.7,16,48,15.9,48.4,15.9"/>
				<path id="Fill-235" class="st1" d="M42.9,16.2l-0.5,0.4l-0.1-0.1l0.5-0.5C42.9,16,42.9,16.1,42.9,16.2"/>
				<path id="Fill-237" class="st1" d="M40.8,16.1c-0.4,0.2-1,0.3-1.3,0.2c0.2-0.4,0.6,0.1,0.8-0.3C40.4,16.2,40.7,15.8,40.8,16.1"
					/>
				<path id="Fill-239" class="st1" d="M9.9,16.2L9.9,16.2c-0.6,0.1-1.1,0-1.7,0c0.1-0.4,0.5,0,0.8-0.2C9.2,16.1,9.6,16,9.9,16.2"/>
				<path id="Fill-241" class="st1" d="M14.3,16.4c-0.2,0.2-0.6,0-0.9-0.1L13.2,16C13.6,16.2,14,16.1,14.3,16.4"/>
				<path id="Fill-243" class="st1" d="M55.4,16.3c-0.6,0-1.2,0.3-1.7-0.1C54.4,16.2,54.9,16.1,55.4,16.3"/>
				<path id="Fill-245" class="st1" d="M30.4,16.7l-0.1,0.1c-1-0.5-1.9,0.1-2.9-0.4c0.3-0.4,0.8,0.1,1.2,0
					C29.1,16.4,29.9,16,30.4,16.7"/>
				<path id="Fill-247" class="st1" d="M53.3,16.4c-0.7,0-1.5,0.3-2.1,0C51.8,16.2,52.7,16,53.3,16.4"/>
				<path id="Fill-249" class="st1" d="M38.2,16.6c-0.3,0-0.6,0-0.9,0.1c-0.1,0-0.3-0.1-0.3-0.2c0.3-0.2,0.8,0.3,1-0.2
					C38.3,16.3,38.3,16.5,38.2,16.6"/>
				<path id="Fill-251" class="st1" d="M6.2,16.5c-0.3,0.1-0.8,0.4-1.1,0.1c-0.1,0,0-0.2,0-0.2C5.5,16.3,6.1,16.2,6.2,16.5"/>
				<path id="Fill-253" class="st1" d="M35.5,16.3l0.1,0L35.5,16.3z"/>
				<path id="Fill-255" class="st1" d="M46.6,16.3c-0.2,0.2-0.6,0.2-1,0.3C45.8,16.4,46.2,16.4,46.6,16.3"/>
				<path id="Fill-257" class="st1" d="M4.4,16.4c0,0,0,0.1-0.1,0.2C4.2,16.5,4.3,16.4,4.4,16.4"/>
				<path id="Fill-259" class="st1" d="M19.6,17.4c1,0.5,2.2,0.7,3.3,1l0.2,0.1c-2.1,0.1-3.8-1.2-5.9-1.3c-0.9,0-1.9-0.3-2.6-0.8
					C16.2,16.8,17.8,17.1,19.6,17.4"/>
				<path id="Fill-261" class="st1" d="M43.6,17.1c-0.1,0-0.2,0-0.2-0.1c0.4,0,0.3-0.4,0.7-0.5C43.9,16.7,43.9,17.1,43.6,17.1"/>
				<polygon id="Fill-263" class="st1" points="50.9,16.5 50.7,16.5 50.9,16.5 				"/>
				<path id="Fill-265" class="st1" d="M11.7,16.8v0.2c-0.6,0-1.3-0.3-1.8-0.5C10.4,16.5,11.3,16.2,11.7,16.8"/>
				<path id="Fill-267" class="st1" d="M50,16.7c-0.4-0.1-0.8,0.4-1.2,0C49.2,16.7,49.7,16.4,50,16.7"/>
				<path id="Fill-269" class="st1" d="M8.3,16.9c0.1,0.5-0.5,0.1-0.8,0.4l-1.1-0.4C7,16.3,7.7,16.8,8.3,16.9"/>
				<path id="Fill-271" class="st1" d="M55.9,16.7h0.3H55.9z"/>
				<path id="Fill-273" class="st1" d="M30.8,16.8c0,0.1-0.2,0-0.3,0l0-0.1C30.5,16.7,30.8,16.7,30.8,16.8"/>
				<path id="Fill-275" class="st1" d="M44.9,16.8c0,0-0.2,0.1-0.2,0C44.8,16.7,44.8,16.7,44.9,16.8"/>
				<path id="Fill-277" class="st0" d="M25.3,16.8C25.4,16.8,25.2,16.8,25.3,16.8C25.3,16.8,25.3,16.7,25.3,16.8"/>
				<path id="Fill-279" class="st0" d="M25,17.4c-1.3-0.5-2.9-0.1-4.2-0.6c1,0,2.2,0.2,3.4,0.2L25,17.4z"/>
				<polygon id="Fill-281" class="st1" points="35.4,16.9 35.4,17 35.3,17 35.3,16.8 				"/>
				<path id="Fill-283" class="st1" d="M56.3,16.8l0.1,0.1L56.3,16.8z"/>
				<path id="Fill-285" class="st1" d="M3.1,18.6l-0.2,0.1l-2-1.4c-0.1-0.1-0.1-0.4,0-0.5C1.4,17.6,2.4,17.8,3.1,18.6"/>
				<path id="Fill-287" class="st1" d="M33.5,17l0.2,0.2c-0.2,0-0.3,0.1-0.5,0C33.1,16.9,33.4,16.9,33.5,17L33.5,17z"/>
				<path id="Fill-289" class="st1" d="M37.2,17L37.2,17L37.2,17C37,17,37.1,17,37.2,17"/>
				<path id="Fill-291" class="st1" d="M47.8,17.1c-0.2,0.1-0.5,0.1-0.8,0.1C47.1,17.1,47.6,16.9,47.8,17.1"/>
				<path id="Fill-293" class="st1" d="M42.7,17.4c-0.1,0-0.1,0.1-0.2,0.1c-0.1,0,0-0.3,0.1-0.3C42.7,17.2,42.8,17.3,42.7,17.4"/>
				<polygon id="Fill-295" class="st1" points="51.3,17.2 51.4,17.2 51.7,17.2 				"/>
				<path id="Fill-297" class="st1" d="M11.7,17.7c0.1,0,0,0.2,0.1,0.2h0c0.2,0.6,1,1.3,1.8,1.3c0.9,0.1,1.7,0.6,2.6,0.7
					c2.6,0.8,5.6,0.8,8.2,1.5c2.1,0.1,4.3,0.1,6.4,0.5c1.7-0.2,3.4,0,5.1-0.2c0.4,0.2,0.9,0,1.3,0.2c0.5,0.1,1,0,1.6,0
					c1.1-0.1,2,0.1,3.1-0.1c0.3,0,0.1,0.3,0.4,0.3L42,22.3c0.2,0.4,0.6,0.1,0.9,0.1c0.6,0,0.9-0.8,1.6-0.6c0.1,0.1,0.1,0.3,0,0.4
					c-0.4,0.6-1.2,0.7-1.9,0.8c0,0,0,0-0.1,0.1c0.9,0.1,1.8-0.2,2.6-0.2l-0.5,0c0.3-0.1,0.7-0.6,1.1-0.6c0.1-0.1,0.1-0.4,0.4-0.3
					c0,0.3-0.2,0.5-0.2,0.9c0,0-0.1,0-0.1,0.1l0.2,0l-0.2,0.2C47,23,48,23.5,49,22.9c0-0.2,0.9-0.3,1-0.7c-0.2-0.4,0.2-0.7,0.4-1
					c-0.2-0.3-0.9,0-1-0.5c0-0.4,0.1-0.8,0.2-1.1c-0.1-0.2-0.5-0.4-0.2-0.7c0.1,0,0.1-0.1,0.3-0.1c0.6,0.5-0.5,1.7,0.4,2
					c0.7-0.2-0.1-1.9,0.9-1l0.2-0.2c0.1,0.1,0.3,0.3,0.2,0.5c-0.2,0.2-0.5-0.1-0.6,0.2c-0.1,0.5,0.6,0.3,0.5,0.8
					c-0.4-0.2-0.8,0.1-0.9,0.5c0.1,0.2-0.2,0.5,0.1,0.5l0.7-0.3c0.1,0.2,0.1,0.5,0,0.7c-0.7,0.7-1.7,0.7-2.5,1
					c-1.7,0.6-3.3-0.1-5.1,0.1c-1.9,0.2-4,0.7-5.9,0.1c-0.7-0.1-1.3-0.1-2.1,0c-1.8-0.5-3.5-0.6-5.3-0.8c-1.9-0.3-3.8,0.1-5.5,0.4
					c-2,0.2-3.8-0.8-5.9-0.6c-0.9-0.6-2-0.8-3.1-1.1c-1.2,0.1-2.4-0.3-3.3-1.2c-1.3-0.2-2.7-0.4-3.7-1.3c-0.4-0.2-1.1-0.1-1.3-0.6
					c0-0.2,0-0.5,0.2-0.6C7.9,18.2,8,17.9,8,17.7l-0.1,0C9,17.1,10.5,17.2,11.7,17.7"/>
				<path id="Fill-299" class="st1" d="M34.5,17.4c-0.1,0.2-0.4,0-0.5,0C34.1,17.2,34.4,17.3,34.5,17.4"/>
				<path id="Fill-301" class="st1" d="M6.6,17.6l-0.4,0.5c-0.3-0.1-0.6-0.3-0.6-0.6v-0.2C6,17.3,6.2,17.5,6.6,17.6"/>
				<path id="Fill-303" class="st1" d="M19.9,18.7c1.9,0.3,3.7,0.7,5.6,0.8v0.1l-0.1,0.1c-0.9-0.1-1.7,0-2.4-0.4
					c-0.2,0.1-0.5-0.2-0.8,0c-0.1,0-0.2-0.2-0.3,0c-1.2-0.2-2.5-0.3-3.6-0.9c-0.8,0-1.4-0.4-2.2-0.5c-0.5,0.1-0.9-0.5-1.4-0.4
					l-0.5-0.2l0-0.1C16.1,17.7,18.1,18.1,19.9,18.7"/>
				<path id="Fill-305" class="st1" d="M33.8,17.3L33.8,17.3L33.8,17.3z"/>
				<path id="Fill-307" class="st1" d="M51,17.3c-0.1,0-0.2,0-0.2,0c1,0.5,2.3,0.7,3.1,1.7c0,0.1-0.1,0.2-0.2,0.1
					c-0.4-0.4-1-0.4-1.6-0.7c-0.8-0.5-1.7-0.5-2.4-1C50,17.4,50.5,17.2,51,17.3"/>
				<path id="Fill-309" class="st1" d="M12.5,17.5L12.5,17.5l-0.2-0.1C12.4,17.4,12.5,17.5,12.5,17.5"/>
				<polygon id="Fill-311" class="st1" points="46.3,17.6 46.3,17.5 46.4,17.6 				"/>
				<path id="Fill-313" class="st1" d="M38.1,17.6c-0.3,0.3-0.9,0.1-1.2,0.3c-0.2,0-0.6,0-0.6-0.2C37,17.6,37.5,17.7,38.1,17.6"/>
				<path id="Fill-315" class="st1" d="M5.2,17.7C5.2,17.7,5.1,17.7,5.2,17.7L5.2,17.7L5.2,17.7z"/>
				<path id="Fill-317" class="st1" d="M50.6,18.5l0,0.3c-0.8,0.1-1.2-0.9-2-0.7c-0.2,0-0.4-0.1-0.5-0.3
					C49.1,17.1,49.7,18.3,50.6,18.5"/>
				<polygon id="Fill-319" class="st1" points="45.1,17.7 45.3,17.6 45.3,17.6 				"/>
				<path id="Fill-321" class="st1" d="M13.3,17.9c0.9,0,1.6,0.4,2.4,0.6c0.4,0.4,1,0,1.3,0.5c0.3,0,0.7,0.3,0.9,0.2
					c0.2,0.2,0.7,0,1,0.2c3.6,0.9,7.5,1.3,11.2,1.3c1.2,0.4,2.7,0.1,3.9,0.4c-4.7,0-9.6-0.1-14.1-1.1c-1.4-0.4-3-0.8-4.5-1.3
					C14.7,18.5,13.9,18.3,13.3,17.9c-0.2,0.2-0.3,0-0.4,0l0-0.2C12.9,17.7,13.2,17.7,13.3,17.9"/>
				<path id="Fill-323" class="st1" d="M30.2,17.9c-0.1,0.1-0.4,0-0.7,0.1c-0.2,0.2-0.4-0.1-0.7-0.1C29.2,17.5,29.7,17.9,30.2,17.9"
					/>
				<path id="Fill-325" class="st1" d="M34.9,17.8c-1.1,0.3-2.5,0.1-3.8,0.1C32.3,17.7,33.6,17.8,34.9,17.8"/>
				<path id="Fill-327" class="st1" d="M35.2,17.8c0,0.1-0.1,0-0.2,0C35.1,17.8,35.1,17.8,35.2,17.8"/>
				<path id="Fill-329" class="st1" d="M31,18c0,0-0.3,0.1-0.2,0H31z"/>
				<path id="Fill-331" class="st1" d="M1.2,18c0.5,0.7,1.2,0.8,1.8,1.4L4,20l0,0.3c-0.2-0.1-0.7-0.1-0.8-0.3
					C2.3,19.5,1.4,18.8,1,18L1.2,18z"/>
				<path id="Fill-333" class="st1" d="M7.1,18.4c0,0.1,0,0.2,0,0.2c-0.1,0-0.3-0.1-0.4-0.2C6.7,18,7.3,17.9,7.1,18.4"/>
				<polygon id="Fill-335" class="st1" points="13.2,18.4 13,18.2 13.2,18.3 				"/>
				<path id="Fill-337" class="st1" d="M38.7,18.3c-1,0.2-2.3,0.5-3.3,0.3l0.1-0.1C36.6,18.5,37.6,18.2,38.7,18.3"/>
				<path id="Fill-339" class="st1" d="M46.1,18.3c-0.1,0.3,0.1,0.6,0.1,0.8h-0.4l0-0.7C46,18.5,45.9,18.2,46.1,18.3"/>
				<path id="Fill-341" class="st1" d="M29.4,18.4C29.4,18.4,29.4,18.4,29.4,18.4L29.4,18.4L29.4,18.4z"/>
				<polygon id="Fill-343" class="st1" points="32,18.5 31.9,18.4 31.9,18.4 				"/>
				<path id="Fill-345" class="st1" d="M33,18.5L33,18.5l-0.1,0.1L33,18.5C32.9,18.5,32.9,18.5,33,18.5"/>
				<path id="Fill-347" class="st1" d="M22.1,18.5l0.8,0.1L22.1,18.5z"/>
				<path id="Fill-349" class="st1" d="M48.2,19.2L48.2,19.2c-0.3,0-0.3-0.4-0.1-0.7C48.3,18.6,48.3,18.9,48.2,19.2"/>
				<path id="Fill-351" class="st1" d="M47.3,19.1c-0.1,0.1-0.3,0-0.4,0c0-0.1-0.1-0.4,0-0.5L47.3,19.1z"/>
				<path id="Fill-353" class="st1" d="M52.6,19.3c0-0.1,0.1-0.1,0.2,0c0.1,0,0,0.1,0,0.1C52.8,19.4,52.8,19.3,52.6,19.3L52.6,19.3
					c0.5,0.1,0.8,0.6,1.2,0.7c0,0.1,0,0.2,0,0.3c-0.5,0-0.7-0.4-1.1-0.6l-0.9-0.1c-0.2-0.4-0.9-0.5-1-1L52.6,19.3z"/>
				<path id="Fill-355" class="st1" d="M44.9,18.9c0,0-0.1,0-0.1,0c-0.1-0.1,0-0.2,0.1-0.3C44.8,18.6,45,18.8,44.9,18.9"/>
				<path id="Fill-357" class="st1" d="M6.4,18.7h0.1H6.4z"/>
				<path id="Fill-359" class="st1" d="M6.7,18.7l0.2,0.1L6.7,18.7z"/>
				<path id="Fill-361" class="st1" d="M45.4,18.9L45.4,18.9C45.2,18.9,45.3,18.8,45.4,18.9L45.4,18.9z"/>
				<path id="Fill-363" class="st1" d="M39.1,19c-0.9,0.3-1.9,0.4-2.8,0.3l0-0.1c0.8-0.1,1.7-0.2,2.5-0.2C38.9,19.1,39,18.9,39.1,19
					"/>
				<path id="Fill-365" class="st1" d="M43.7,18.9c0.1,0.1,0,0.1,0,0.2h0C43.5,19.1,43.6,18.9,43.7,18.9"/>
				<path id="Fill-367" class="st1" d="M48.4,19.5c-0.2,0.3,0,0.8-0.2,1.1c0,0,0,0.2,0,0.3c-0.1,0-0.1,0-0.2-0.1
					c0.4-0.2-0.3-0.4,0.1-0.7C48,19.8,48.1,19.5,48.4,19.5L48.4,19.5z"/>
				<path id="Fill-369" class="st1" d="M28.4,19.9c-0.8,0-1.8,0-2.6-0.1l0.1-0.1L28.4,19.9L28.4,19.9z"/>
				<path id="Fill-371" class="st1" d="M45.4,19.7c0,0.2,0,0.5,0,0.7c-0.2-0.1-0.2-0.3-0.2-0.6C45.2,19.7,45.2,19.7,45.4,19.7"/>
				<path id="Fill-373" class="st1" d="M47.2,20.2c0,0.2-0.2,0.2-0.3,0.3c-0.3-0.1-0.1-0.5,0-0.7C47.1,19.8,47.1,20.1,47.2,20.2"/>
				<path id="Fill-375" class="st1" d="M44.4,20.6c-0.4-0.1,0-0.4,0-0.7c0,0,0.1-0.1,0.2,0C44.7,20.1,44.5,20.3,44.4,20.6"/>
				<path id="Fill-377" class="st1" d="M52.4,20.4c-0.1,0.2-0.1,0.7-0.5,0.5c0-0.3,0-0.7,0-1C52.3,19.9,52.3,20.2,52.4,20.4"/>
				<path id="Fill-379" class="st1" d="M32.7,20.1L32.7,20.1l-0.1,0v-0.1C32.6,20.1,32.6,20.1,32.7,20.1"/>
				<polygon id="Fill-381" class="st1" points="32.2,20.2 32.1,20.1 32.2,20.1 				"/>
				<path id="Fill-383" class="st1" d="M5.7,20.7c-0.2,0-0.5-0.1-0.7-0.4l0.1-0.2C5.3,20.3,5.5,20.6,5.7,20.7"/>
				<path id="Fill-385" class="st1" d="M43.3,20.2c-0.1,0.2-0.3,0.6-0.6,0.5C42.8,20.5,43,20.2,43.3,20.2"/>
				<path id="Fill-387" class="st0" d="M1.2,20.7l-1.1,0v-0.1C0.5,20.6,1,20.2,1.2,20.7"/>
				<polygon id="Fill-389" class="st1" points="2.5,20.7 2.2,20.5 2.4,20.6 				"/>
				<path id="Fill-391" class="st1" d="M53.6,20.8c0,0.1-0.2,0-0.2,0.2c0.2,0,0,0.2,0,0.4c0,0-0.2,0.1-0.3,0.1
					c-0.3-0.2,0.2-0.5-0.1-0.7C52.8,20.3,53.5,20.5,53.6,20.8"/>
				<path id="Fill-393" class="st1" d="M7.8,21c0,0.3-0.3,0-0.4,0.2c-0.3,0-0.5-0.2-0.8-0.2l0-0.4C7.1,20.6,7.6,20.6,7.8,21"/>
				<path id="Fill-395" class="st1" d="M33.7,20.6L33.7,20.6l-0.2,0C33.6,20.6,33.7,20.6,33.7,20.6"/>
				<path id="Fill-397" class="st1" d="M45,21.1c0,0.1-0.2,0-0.2,0l0.1-0.4C45,20.9,45.2,21,45,21.1"/>
				<path id="Fill-399" class="st1" d="M44.3,20.9c0,0.2-0.1,0.4-0.4,0.5h-0.1c-0.1-0.2,0.2-0.4,0.3-0.6
					C44.1,20.8,44.2,20.8,44.3,20.9"/>
				<polygon id="Fill-401" class="st0" points="53.1,21.1 53.2,21 53.2,21 				"/>
				<path id="Fill-403" class="st1" d="M6.2,21.6c-0.4,0-0.9-0.1-1.1-0.6C5.4,21.3,6.1,21.2,6.2,21.6"/>
				<path id="Fill-405" class="st1" d="M10.1,21.7L10.1,21.7c-0.6-0.1-1.3-0.4-1.9-0.4l0-0.3C8.9,21.1,9.5,21.5,10.1,21.7"/>
				<path id="Fill-407" class="st1" d="M34.2,21.1h0.3H34.2z"/>
				<path id="Fill-409" class="st1" d="M42,21.5c0,0.1-0.1,0.2-0.2,0.2c-0.1,0-0.3,0-0.3-0.2C41.5,21.1,42,21.3,42,21.5"/>
				<path id="Fill-411" class="st1" d="M52.6,21.4c0,0.1-0.2,0.4,0,0.4c-0.2,0.1-0.5,0.5-0.9,0.5c0-0.3,0-0.4,0-0.6
					C52,21.7,52.3,21,52.6,21.4"/>
				<path id="Fill-413" class="st1" d="M53.8,21.3C53.8,21.4,53.7,21.4,53.8,21.3L53.8,21.3C53.7,21.3,53.7,21.3,53.8,21.3"/>
				<path id="Fill-415" class="st0" d="M2.1,21.6c-0.3,0-1,0.1-1.4-0.1C1.1,21.4,1.7,21.1,2.1,21.6"/>
				<path id="Fill-417" class="st1" d="M46.4,21.6c0,0.1-0.1,0.1-0.2,0l0-0.2C46.3,21.5,46.4,21.6,46.4,21.6"/>
				<polygon id="Fill-419" class="st1" points="51.7,21.6 51.7,21.5 51.8,21.5 				"/>
				<path id="Fill-421" class="st1" d="M10.3,22.3c0.1,0.1,0.4,0.1,0.2,0.4c-1.3-0.3-2.8-0.5-4.1-0.9l0-0.3C7.7,22,9,21.9,10.3,22.3
					"/>
				<path id="Fill-423" class="st1" d="M49.2,22.3l-0.3,0.3c0,0,0.1,0,0.1,0c-0.1,0-0.2,0.1-0.4,0.1c0-0.4,0.3-0.8,0.4-1.2
					c0,0,0.1-0.1,0.2,0C49.5,21.8,49.2,22,49.2,22.3"/>
				<path id="Fill-425" class="st1" d="M3.9,21.6L3.9,21.6L3.9,21.6z"/>
				<path id="Fill-427" class="st1" d="M47.6,21.9c0,0.3-0.3,0.6-0.5,0.9c-0.2,0-0.2-0.2-0.4-0.3c0.4,0,0.4-0.5,0.6-0.7
					C47.4,21.8,47.6,21.8,47.6,21.9"/>
				<path id="Fill-429" class="st1" d="M11.9,21.9L11.9,21.9C11.8,21.9,11.9,21.8,11.9,21.9L11.9,21.9z"/>
				<polygon id="Fill-431" class="st1" points="4.3,22 4.3,21.9 4.5,22.1 				"/>
				<path id="Fill-433" class="st1" d="M54.3,22l-0.1,0.1L54.3,22z"/>
				<path id="Fill-435" class="st1" d="M13.5,22.3c0,0.1-0.3,0.1-0.4,0l0-0.1l0.1-0.1C13.3,22,13.3,22.2,13.5,22.3"/>
				<path id="Fill-437" class="st0" d="M2.9,22.5c-0.5-0.1-1,0.1-1.4-0.2C1.9,22.3,2.6,21.8,2.9,22.5"/>
				<path id="Fill-439" class="st0" d="M0.8,22.4l-0.7,0c-0.1-0.1,0.1,0,0.1-0.1C0.5,22.3,0.7,22.1,0.8,22.4"/>
				<path id="Fill-441" class="st1" d="M13.7,22.3v0.1V22.3C13.7,22.3,13.8,22.3,13.7,22.3"/>
				<path id="Fill-443" class="st1" d="M14.6,22.6c0,0-0.1,0.2-0.2,0.1c-0.1,0,0-0.2,0-0.3C14.5,22.4,14.7,22.3,14.6,22.6"/>
				<path id="Fill-445" class="st1" d="M10.8,23.3c0.2,0.1,0.1,0.4,0.4,0.4c0.3-0.5,0.9,0,1.3,0c0,0.1,0.2,0.1,0.1,0.3
					c-1.2-0.1-2.4-0.6-3.6-0.8c-0.6-0.1-1.2-0.4-1.8-0.8L10.8,23.3z"/>
				<path id="Fill-447" class="st1" d="M15.3,22.7c-0.1,0.1-0.3,0.1-0.5,0l0,0C14.7,22.5,15.3,22.5,15.3,22.7"/>
				<path id="Fill-449" class="st1" d="M11.6,22.6c0.6-0.1,0.9,0.8,1.5,0.3c0.3,0.2,0.8-0.1,0.9,0.4c0,0.1,0,0.3-0.1,0.3
					c-0.3-0.3-0.9,0-1-0.5c-0.2-0.1-0.5,0.1-0.8-0.1c-0.3-0.2-1.2,0.1-1-0.5C11.2,22.8,11.3,22.5,11.6,22.6"/>
				<path id="Fill-451" class="st1" d="M16.9,22.9l0.4,0.1c-0.2-0.4-0.6,0.4-0.9,0c-0.3,0.3-0.4-0.2-0.6-0.1v-0.2
					C16.1,22.9,16.5,22.7,16.9,22.9"/>
				<path id="Fill-453" class="st1" d="M53.7,22.7l-0.2,0.2L53.7,22.7z"/>
				<path id="Fill-455" class="st1" d="M6,22.9L6.2,23L6,22.9z"/>
				<path id="Fill-457" class="st0" d="M3.5,23.2c-0.3,0-1,0.3-1.3-0.1C2.6,23,3.3,22.7,3.5,23.2"/>
				<path id="Fill-459" class="st1" d="M48.2,22.9c0,0-0.1,0-0.2,0C48.1,23,48.1,22.9,48.2,22.9"/>
				<path id="Fill-461" class="st1" d="M46.8,22.9h0.3H46.8z"/>
				<path id="Fill-463" class="st0" d="M1.6,23.2c-0.1,0.1-0.5,0.1-0.7,0c0,0-0.1,0-0.1-0.1C0.9,23.1,1.4,22.9,1.6,23.2"/>
				<path id="Fill-465" class="st1" d="M15.6,23.8v0.1c-0.3,0-0.6-0.1-0.9-0.2c0-0.1-0.1-0.1-0.1-0.2C14.8,23.2,15.6,23.3,15.6,23.8
					"/>
				<path id="Fill-467" class="st1" d="M21,23.6c-0.2,0.2-0.7,0-1,0c0-0.1-0.2-0.1-0.2-0.2C20.1,23.5,20.7,23.3,21,23.6"/>
				<path id="Fill-469" class="st1" d="M31.6,23.5h0.1H31.6z"/>
				<path id="Fill-471" class="st1" d="M34.6,24.4c1,0.1,2.3-0.3,3.1,0.4c-1.4,0.2-3-0.1-4.3-0.2c-0.4,0.3-0.8-0.1-1.1-0.1
					c-0.9,0.1-1.8-0.3-2.7-0.3c-0.7-0.1-1.4-0.4-2.1-0.2c-0.2,0-0.5,0-0.8-0.1c-0.3,0.1-0.8,0.1-1.2,0c0.9,0,1.8-0.3,2.7-0.3l0-0.1
					C30.4,23.5,32.4,24.3,34.6,24.4"/>
				<path id="Fill-473" class="st1" d="M17.9,24.3L16.1,24c-0.1,0-0.1-0.2,0-0.3c0.5-0.2,1,0,1.5,0.1C17.7,24,17.8,24.2,17.9,24.3"
					/>
				<path id="Fill-475" class="st1" d="M51,23.6c-0.1,0.1-0.2,0.1-0.3,0.1C50.7,23.7,50.9,23.6,51,23.6"/>
				<path id="Fill-477" class="st0" d="M6.5,24.1c-0.6,0-1.2,0.1-1.6-0.1c0.4-0.2,1-0.1,1.5-0.1L6.5,24.1z"/>
				<path id="Fill-479" class="st1" d="M25.8,24.2c0.3,0,0.7-0.1,0.9,0.1c0.5,0,1.2,0.2,1.7,0c0.4,0.2,1,0.3,1.4,0.3
					c0.5,0.1,1.1,0.2,1.5,0.1c0.2,0.3,0.5,0,0.8,0.2c1.3,0.1,2.7,0.3,4,0.4c0.4-0.3,0.9,0.2,1.3-0.1c0.9,0,1.9-0.2,2.7,0.5
					c-0.2,0.5-0.9,0.3-1.2,0.7c-1.1,0.2-2.5-0.1-3.7,0.1c-0.5-0.3-1.1,0-1.6-0.2c-0.7,0-1.4-0.3-2-0.3c-1.3,0-2.6-0.5-3.8-0.5
					c-0.9-0.3-2.2-0.1-3.3-0.4c-0.6,0.1-1.1,0-1.8-0.1l-0.1-0.1l0.2-0.1c1,0,2.1,0,3,0.3c0.9,0,2,0.2,3,0.1c0.3,0.3,1,0,1.3,0.3
					c2.6,0.3,5.5,0.8,8.1,0.6l1.2-0.1c0.1-0.2,0.5,0.1,0.5-0.3l-0.3-0.1c-2,0.1-3.8,0.2-5.8-0.1c-1.9,0-3.9-0.7-5.8-0.8
					c-0.2,0.1-0.6-0.1-0.9,0c-0.2-0.1-0.3,0-0.5,0c-1.3-0.4-2.5-0.4-3.8-0.6c-0.4-0.1-0.9,0.1-1.1-0.2C23,24.2,24.4,23.8,25.8,24.2"
					/>
				<path id="Fill-481" class="st0" d="M2.1,23.9h0.2H2.1z"/>
				<path id="Fill-483" class="st0" d="M4.2,24l-1,0C3.4,23.9,3.9,23.9,4.2,24"/>
				<path id="Fill-485" class="st1" d="M14.6,24.5c0.2,0,0.2-0.3,0.2-0.4c0.3,0.2,0.9,0,1,0.6c-0.9-0.1-1.7-0.1-2.5-0.4l0-0.4
					C13.7,24.1,14.4,23.9,14.6,24.5"/>
				<path id="Fill-487" class="st1" d="M21.5,24.4l0.1,0.1l-0.2,0.2c-0.9,0-1.7-0.4-2.5-0.2l-0.2-0.3c0.3-0.4,0.9-0.1,1.2,0
					L21.5,24.4z"/>
				<path id="Fill-489" class="st1" d="M47.2,24.2C47.3,24.2,47.2,24.2,47.2,24.2l-0.1,0.1C47.1,24.2,47.2,24.1,47.2,24.2"/>
				<path id="Fill-491" class="st1" d="M49.5,24.4c0,0.1-0.1,0.1-0.2,0.1C49.4,24.5,49.5,24.4,49.5,24.4"/>
				<path id="Fill-493" class="st1" d="M18.5,24.9c0,0.1,0.2,0.1,0.1,0.2l-2.2-0.3c-0.1-0.1-0.2-0.2-0.1-0.3
					C17.1,24.6,17.8,24.8,18.5,24.9"/>
				<polygon id="Fill-495" class="st1" points="42.2,24.6 42.1,24.5 42.2,24.5 				"/>
				<polygon id="Fill-497" class="st1" points="49.1,24.6 49.1,24.6 49.3,24.6 				"/>
				<path id="Fill-499" class="st0" d="M7.1,25c-0.5-0.1-1.2,0.2-1.5-0.2C6.1,24.8,6.9,24.4,7.1,25"/>
				<path id="Fill-501" class="st1" d="M44.5,25c-1.2,0.1-2.6,0.1-3.9,0.3c-0.2,0-0.4-0.1-0.6-0.4c0.5,0,0.9,0.1,1.5-0.2
					c0.2,0.3,0.6,0,0.9,0.1v-0.1l0.2,0.1c0.5,0,1-0.1,1.4-0.2C44.2,24.8,44.4,24.8,44.5,25"/>
				<path id="Fill-503" class="st1" d="M48.9,24.8c-1,0.4-2.2,0.4-3.4,0.4c-0.1-0.1-0.2-0.1-0.3-0.2c0.2-0.3,0.7,0,0.9-0.2
					c0.7,0.2,1.5,0.2,2.1,0L48.9,24.8z"/>
				<path id="Fill-505" class="st0" d="M4.9,24.9l-1-0.1C4.3,24.8,4.7,24.6,4.9,24.9"/>
				<path id="Fill-507" class="st1" d="M24,25.7c0.9,0,1.9,0,2.8,0.2l1,0.1c0.2-0.2,0.5,0,0.8,0.1c-0.2,0.1-0.7-0.1-0.8,0.1
					c-1.4-0.2-2.7-0.4-4-0.4c-1.5,0.1-2.7-0.4-4.1-0.5c-0.1,0-0.3,0-0.3-0.2c0.5-0.4,1,0,1.6,0C21.9,25.2,23,25.4,24,25.7"/>
				<path id="Fill-509" class="st0" d="M10.5,25.7H8.4l-0.1-0.1c0.7,0,1.3-0.1,2-0.1L10.5,25.7z"/>
				<path id="Fill-511" class="st1" d="M46.4,25.6L46.4,25.6c-1.1,0.3-2,0.3-3.1,0.3v-0.1c0.9-0.1,1.9,0,2.8-0.3
					C46.1,25.6,46.3,25.4,46.4,25.6"/>
				<path id="Fill-513" class="st0" d="M7.7,25.7c-0.2,0.1-0.6,0-0.9,0C7.1,25.7,7.4,25.5,7.7,25.7"/>
				<path id="Fill-515" class="st1" d="M42.7,26c-0.8,0-1.6,0.4-2.4,0.4l0.1-0.2c0.8-0.2,1.6-0.5,2.4-0.3L42.7,26z"/>
				<path id="Fill-517" class="st1" d="M29.3,26.1l0.3,0.1L29.3,26.1z"/>
				<path id="Fill-519" class="st1" d="M21.7,26.3l0.2,0L21.7,26.3z"/>
				<path id="Fill-521" class="st0" d="M17.2,26.5L17.2,26.5c-0.9,0.1-1.6,0.2-2.4,0c0.7-0.1,1.5-0.1,2.3-0.1L17.2,26.5z"/>
				<path id="Fill-523" class="st0" d="M14.1,26.5L14.1,26.5c-0.8,0-1.6,0.3-2.2,0C12.7,26.5,13.4,26.4,14.1,26.5"/>
				<polygon id="Fill-525" class="st0" points="10.7,26.5 11,26.5 11.1,26.5 				"/>
				<path id="Fill-527" class="st0" d="M35.2,27.2c1.7-0.1,3.4,0,4.9-0.1l1.1,0c-4.3,0.4-8.7,0.3-13.1,0.4c-0.1,0-0.3-0.1-0.3-0.2
					c0.6-0.2,1.4-0.1,2,0c1.3-0.1,2.7,0,3.9,0L34,27C34.2,27.6,34.8,27,35.2,27.2"/>
				<path id="Fill-529" class="st0" d="M24.2,27.5c-0.9-0.1-1.8,0-2.6-0.1l-0.1-0.1c0.8-0.2,1.8-0.1,2.6-0.1L24.2,27.5z"/>
				<path id="Fill-531" class="st0" d="M27.3,27.3c0,0,0,0.1,0,0.2H25c0-0.1-0.3-0.2-0.1-0.3C25.8,27.2,26.6,27.2,27.3,27.3"/>
				<path id="Fill-533" class="st0" d="M17.6,27.3c-0.3,0.1-0.9,0.1-1.3,0.1l-0.6-0.1l0,0L17.6,27.3z"/>
				<path id="Fill-535" class="st0" d="M20.5,27.5c-0.7,0-1.5,0-2.2-0.1v-0.1C19,27.3,20,27,20.5,27.5"/>
			</g>
			<g id="Handmade" transform="translate(5.333333, 61.923077)">
				<polygon id="Fill-557" class="st2" points="0.4,6.5 0.4,0.4 1.8,0.4 1.8,2.9 3.3,2.9 3.3,0.4 4.7,0.4 4.7,6.5 3.3,6.5 3.3,3.9 
					1.8,3.9 1.8,6.5 				"/>
				<path id="Fill-559" class="st2" d="M11.7,4.2h1L12.2,2h0L11.7,4.2z M9.8,6.5l1.6-6.1h1.4l1.6,6.1h-1.3l-0.3-1.3h-1.4l-0.3,1.3
					H9.8z"/>
				<polygon id="Fill-561" class="st2" points="19.6,6.5 19.6,0.4 20.9,0.4 22.5,3.8 22.5,3.8 22.5,0.4 23.8,0.4 23.8,6.5 22.6,6.5 
					20.9,2.9 20.9,2.9 20.9,6.5 				"/>
				<path id="Fill-563" class="st2" d="M30.9,5.4h0.3c0.5,0,0.8-0.2,1-0.5c0.2-0.3,0.3-0.8,0.3-1.5c0-1.4-0.4-2-1.2-2h-0.4V5.4z
					 M29.5,6.5V0.4h1.8c0.6,0,1.1,0.1,1.5,0.4c0.4,0.3,0.7,0.6,0.9,1.1c0.2,0.4,0.3,0.9,0.3,1.5c0,0.5-0.1,1-0.3,1.5
					c-0.2,0.5-0.5,0.9-0.8,1.2c-0.4,0.3-0.9,0.5-1.5,0.5H29.5z"/>
				<polygon id="Fill-565" class="st2" points="39.4,6.5 39.4,0.4 40.6,0.4 42,2.9 43.4,0.4 44.7,0.4 44.7,6.5 43.4,6.5 43.4,2.6 
					43.4,2.6 42.2,4.9 41.9,4.9 40.7,2.6 40.7,2.6 40.7,6.5 				"/>
				<path id="Fill-567" class="st2" d="M51.6,4.2h1L52.1,2h0L51.6,4.2z M49.8,6.5l1.6-6.1h1.4l1.6,6.1h-1.3l-0.3-1.3h-1.4l-0.3,1.3
					H49.8z"/>
				<path id="Fill-569" class="st2" d="M60.9,5.4h0.3c0.5,0,0.8-0.2,1-0.5c0.2-0.3,0.3-0.8,0.3-1.5c0-1.4-0.4-2-1.2-2h-0.4V5.4z
					 M59.5,6.5V0.4h1.8c0.6,0,1.1,0.1,1.5,0.4c0.4,0.3,0.7,0.6,0.9,1.1c0.2,0.4,0.3,0.9,0.3,1.5c0,0.5-0.1,1-0.3,1.5
					c-0.2,0.5-0.5,0.9-0.8,1.2c-0.4,0.3-0.9,0.5-1.5,0.5H59.5z"/>
				<polygon id="Fill-571" class="st2" points="69.4,6.5 69.4,0.4 72.9,0.4 72.9,1.5 70.7,1.5 70.7,2.9 72.8,2.9 72.8,3.9 70.7,3.9 
					70.7,5.4 73,5.4 73,6.5 				"/>
				<path id="Fill-573" class="st2" d="M87.2,4.9v1.2c-0.2,0.2-0.4,0.3-0.6,0.3c-0.2,0.1-0.5,0.1-0.8,0.1c-0.5,0-0.9-0.1-1.3-0.4
					c-0.4-0.2-0.7-0.6-0.9-1.1c-0.2-0.5-0.3-1-0.3-1.6c0-0.5,0.1-0.9,0.2-1.3c0.1-0.4,0.3-0.7,0.5-1c0.2-0.3,0.5-0.5,0.8-0.6
					c0.3-0.2,0.6-0.2,1-0.2c0.5,0,0.9,0.1,1.4,0.3v1.2c-0.4-0.2-0.8-0.4-1-0.4c-0.4,0-0.8,0.2-1,0.5c-0.3,0.3-0.4,0.8-0.4,1.4
					c0,0.6,0.1,1.1,0.3,1.5c0.2,0.3,0.6,0.5,1,0.5C86.3,5.4,86.7,5.2,87.2,4.9"/>
				<polygon id="Fill-576" class="st2" points="92.6,6.5 92.6,0.4 94,0.4 94,2.9 95.6,2.9 95.6,0.4 96.9,0.4 96.9,6.5 95.6,6.5 
					95.6,3.9 94,3.9 94,6.5 				"/>
				<polygon id="Fill-578" class="st2" points="102.6,6.5 102.6,0.4 106.1,0.4 106.1,1.5 104,1.5 104,2.9 106,2.9 106,3.9 104,3.9 
					104,5.4 106.2,5.4 106.2,6.5 				"/>
				<polygon id="Fill-580" class="st2" points="111.6,6.5 111.6,0.4 115.1,0.4 115.1,1.5 113,1.5 113,2.9 115,2.9 115,3.9 113,3.9 
					113,5.4 115.2,5.4 115.2,6.5 				"/>
				<path id="Fill-582" class="st2" d="M120.4,6.1V4.8c0.3,0.2,0.5,0.4,0.7,0.5c0.2,0.1,0.4,0.1,0.6,0.1c0.2,0,0.3,0,0.4-0.1
					c0.1-0.1,0.2-0.2,0.2-0.4c0-0.2-0.1-0.4-0.2-0.5c-0.1-0.2-0.4-0.4-0.7-0.7c-0.3-0.3-0.6-0.6-0.7-0.9c-0.2-0.3-0.2-0.6-0.2-0.9
					c0-0.3,0.1-0.5,0.2-0.8c0.2-0.2,0.4-0.4,0.6-0.6c0.3-0.1,0.6-0.2,0.9-0.2c0.4,0,0.9,0.1,1.3,0.4v1.1c-0.3-0.2-0.5-0.3-0.7-0.3
					c-0.2-0.1-0.3-0.1-0.5-0.1c-0.2,0-0.3,0-0.4,0.1c-0.1,0.1-0.2,0.2-0.2,0.3c0,0.2,0.1,0.4,0.4,0.6c0.2,0.2,0.5,0.5,0.7,0.7
					c0.2,0.2,0.5,0.5,0.6,0.8c0.2,0.3,0.3,0.6,0.3,0.9c0,0.2,0,0.5-0.1,0.7c-0.1,0.2-0.2,0.4-0.4,0.5c-0.2,0.2-0.3,0.3-0.6,0.4
					c-0.2,0.1-0.5,0.1-0.7,0.1c-0.1,0-0.3,0-0.5,0c-0.2,0-0.3-0.1-0.5-0.2C120.8,6.3,120.6,6.2,120.4,6.1"/>
				<polygon id="Fill-584" class="st2" points="129.1,6.5 129.1,0.4 132.6,0.4 132.6,1.5 130.4,1.5 130.4,2.9 132.5,2.9 132.5,3.9 
					130.4,3.9 130.4,5.4 132.7,5.4 132.7,6.5 				"/>
			</g>
			<g id="Beecher">
				<path id="Fill-5" class="st2" d="M70.3,26.9c0,0.1-0.2,0-0.3,0.1v-0.1H70.3z"/>
				<path id="Fill-7" class="st2" d="M75.9,27.2c-0.3,0.1-0.9,0.1-1.2,0C75,27.1,75.5,27.3,75.9,27.2"/>
				<path id="Fill-537" class="st2" d="M22.7,17.8l1.5,3.5l7.8-3.3c0.2-0.1,0.3-0.2,0.4-0.3c0.1-0.1,0.1-0.3,0-0.6l0.3-0.1l1.4,3.3
					l-0.3,0.1c-0.2-0.2-0.3-0.3-0.4-0.4c-0.1,0-0.3,0-0.5,0l-11,4.7l-0.1-0.3c0.2-0.2,0.3-0.3,0.3-0.4c0-0.1,0-0.3-0.1-0.5
					l-4.6-10.9c-0.1-0.2-0.2-0.3-0.3-0.4c-0.1-0.1-0.3-0.1-0.6-0.1L16.4,12l10.8-4.6c0.2-0.1,0.3-0.2,0.4-0.3c0.1-0.1,0.1-0.3,0-0.6
					l0.3-0.1l1.4,3.3L29,9.9c-0.2-0.2-0.3-0.3-0.4-0.4c-0.1,0-0.3,0-0.5,0l-7.6,3.2l1.3,3l4.9-2.1c0.2-0.1,0.3-0.2,0.4-0.3
					s0.1-0.3,0-0.6l0.3-0.1l1.4,3.2l-0.3,0.1c-0.2-0.2-0.3-0.3-0.4-0.4c-0.1-0.1-0.3,0-0.5,0L22.7,17.8z"/>
				<path id="Fill-539" class="st2" d="M39.4,12.1l0.9,3.7l8.3-1.9c0.2,0,0.3-0.1,0.4-0.2c0.1-0.1,0.1-0.3,0.1-0.6l0.3-0.1l0.8,3.5
					l-0.3,0.1c-0.1-0.2-0.2-0.4-0.4-0.4c-0.1-0.1-0.3-0.1-0.5,0l-11.7,2.7l-0.1-0.3c0.2-0.1,0.3-0.2,0.4-0.4c0.1-0.1,0.1-0.3,0-0.5
					L35.1,6.2c0-0.2-0.1-0.4-0.2-0.4c-0.1-0.1-0.3-0.1-0.5-0.2l-0.1-0.3l11.5-2.6c0.2,0,0.3-0.1,0.4-0.2c0.1-0.1,0.1-0.3,0.1-0.6
					l0.3-0.1l0.8,3.5L47,5.4c-0.1-0.2-0.2-0.4-0.4-0.4c-0.1-0.1-0.3-0.1-0.5,0l-8,1.8l0.8,3.2l5.2-1.2c0.2,0,0.3-0.1,0.4-0.2
					c0.1-0.1,0.1-0.3,0.1-0.6l0.3-0.1l0.8,3.4l-0.3,0.1c-0.1-0.2-0.2-0.4-0.4-0.4c-0.1-0.1-0.3-0.1-0.5-0.1L39.4,12.1z"/>
				<path id="Fill-544" class="st2" d="M82.9,8.9l-7.6-0.4l-0.3,5c0,0.2,0,0.4,0.1,0.5c0.1,0.1,0.2,0.2,0.5,0.3l0,0.3l-4.1-0.2
					l0-0.3c0.2-0.1,0.4-0.1,0.5-0.2c0.1-0.1,0.1-0.3,0.2-0.5l0.6-11.8c0-0.2,0-0.4-0.1-0.5c-0.1-0.1-0.2-0.2-0.5-0.3l0-0.3l4.1,0.2
					l0,0.3c-0.2,0-0.4,0.1-0.5,0.2c-0.1,0.1-0.1,0.3-0.2,0.5l-0.2,4.5L83,6.6l0.2-4.5c0-0.2,0-0.4-0.1-0.5c-0.1-0.1-0.2-0.2-0.5-0.3
					l0-0.3l4.1,0.2l0,0.3c-0.2,0.1-0.4,0.1-0.5,0.2c-0.1,0.1-0.1,0.3-0.2,0.5l-0.6,11.8c0,0.2,0,0.4,0.1,0.5
					c0.1,0.1,0.2,0.2,0.5,0.3l0,0.3L81.9,15l0-0.3c0.2,0,0.4-0.1,0.5-0.2c0.1-0.1,0.2-0.3,0.2-0.5L82.9,8.9z"/>
				<path id="Fill-546" class="st2" d="M95,10.4l-0.7,3.8l8.3,1.6c0.2,0,0.3,0,0.5-0.1c0.1-0.1,0.2-0.2,0.3-0.5l0.3,0.1l-0.7,3.5
					l-0.3-0.1c0-0.3-0.1-0.4-0.1-0.5c-0.1-0.1-0.2-0.2-0.4-0.2l-11.8-2.3l0.1-0.3c0.2,0,0.4-0.1,0.5-0.2c0.1-0.1,0.2-0.2,0.2-0.4
					l2.3-11.6c0-0.2,0-0.4,0-0.5S93.2,2.5,93,2.4L93.1,2l11.5,2.2c0.2,0,0.3,0,0.5-0.1c0.1-0.1,0.2-0.2,0.3-0.5l0.3,0.1L105,7.4
					l-0.3-0.1c0-0.2-0.1-0.4-0.2-0.5c-0.1-0.1-0.2-0.2-0.4-0.2L96.1,5l-0.6,3.3l5.3,1c0.2,0,0.3,0,0.5-0.1c0.1-0.1,0.2-0.2,0.3-0.5
					l0.3,0.1l-0.7,3.5l-0.3-0.1c0-0.2-0.1-0.4-0.2-0.5c-0.1-0.1-0.2-0.2-0.4-0.2L95,10.4z"/>
				<path id="Fill-548" class="st2" d="M113,13l4.1,1.7c0.6,0.2,1,0.4,1.3,0.5c0.3,0.1,0.5,0.1,0.8,0c0.6-0.1,1-0.5,1.3-1.1
					c0.3-0.7,0.2-1.2-0.1-1.7c-0.2-0.2-0.4-0.4-0.6-0.5c-0.2-0.1-0.6-0.3-1.3-0.6l-4.1-1.7L113,13z M112.1,15.1l-1.7,4.3
					c-0.1,0.2-0.1,0.4-0.1,0.5c0,0.1,0.2,0.3,0.4,0.4l-0.1,0.3l-3.8-1.5l0.1-0.3c0.2,0,0.4,0,0.5-0.1c0.1-0.1,0.2-0.2,0.3-0.4
					l4.5-11c0.1-0.2,0.1-0.4,0.1-0.5c0-0.1-0.2-0.3-0.3-0.4l0.1-0.3l7.7,3.1c0.9,0.4,1.6,0.7,2.1,1.1c0.5,0.3,0.9,0.7,1.2,1.2
					c0.3,0.5,0.5,1.1,0.5,1.8c0,0.6-0.1,1.3-0.4,1.9c-0.9,2.1-2.5,2.9-4.8,2.4l0.9,4.5c0.2,0.8,0.3,1.3,0.4,1.6
					c0.1,0.3,0.3,0.5,0.6,0.6l-0.1,0.3l-4.4-1.8l0.1-0.3c0.3,0.1,0.5,0,0.6-0.2c0-0.1,0-0.4-0.1-1l-0.9-4.8L112.1,15.1z"/>
				<path id="Fill-550" class="st2" d="M126.2,18.4c0.6,0,1.2-0.1,1.5-0.3c0.4-0.2,0.8-0.5,1.1-0.9c-0.3-0.1-0.5-0.2-0.6-0.3
					c-0.4-0.2-0.6-0.5-0.6-0.9c-0.1-0.4,0.1-0.8,0.3-1.2c0.3-0.4,0.6-0.7,1-0.8c0.4-0.1,0.8-0.1,1.1,0.2c0.4,0.3,0.7,0.7,0.7,1.2
					c0,0.5-0.1,1.1-0.5,1.7c-0.8,1.3-2.1,2-4,2.1L126.2,18.4z"/>
				<path id="Fill-555" class="st2" d="M11.1,32.7l3.2-3.7c0.6-0.7,0.9-1.3,1-1.7c0.1-0.5-0.2-1-0.7-1.5c-0.5-0.5-1.1-0.6-1.6-0.5
					c-0.5,0.1-1,0.5-1.6,1.2l-3.2,3.7L11.1,32.7z M6.5,28.7l3.3-3.8c0.5-0.6,0.8-1.1,0.8-1.4c0-0.4-0.2-0.8-0.6-1.2
					c-0.4-0.4-0.9-0.5-1.3-0.5c-0.4,0.1-0.9,0.4-1.4,1L4,26.6L6.5,28.7z M12.8,23.3c1.4-0.7,2.7-0.6,4,0.5c1,0.8,1.4,1.8,1.4,2.9
					c0,0.6-0.1,1.1-0.4,1.7c-0.3,0.5-0.7,1.1-1.2,1.8l-5.9,6.8l-0.2-0.2c0.1-0.2,0.1-0.4,0.1-0.5c0-0.1-0.1-0.3-0.3-0.4l-9-7.7
					c-0.2-0.1-0.3-0.2-0.5-0.2c-0.1,0-0.3,0.1-0.5,0.2L0,27.7L5.9,21c0.6-0.6,1.1-1.1,1.5-1.4c0.4-0.3,0.9-0.5,1.4-0.6
					c1-0.2,2,0.2,2.9,1C12.7,20.9,13.1,22,12.8,23.3L12.8,23.3z"/>
				<path id="Fill-541" class="st2" d="M65.9,9.2l2,2.8l-0.2,0.2C67.5,12,67.4,12,67.3,12c-0.1,0-0.4,0.2-0.9,0.6
					c-1.1,0.8-2,1.3-2.7,1.6c-0.7,0.3-1.6,0.5-2.7,0.5c-2.1,0.1-3.8-0.3-5.2-1.2c-0.8-0.5-1.5-1.3-2-2.1c-0.6-1-0.9-2.1-1-3.3
					c-0.1-1.7,0.2-3.2,1.1-4.5c1.3-2,3.3-3,6.2-3.2c1-0.1,1.9,0,2.7,0.2s1.7,0.6,2.9,1.2c0.6,0.3,0.9,0.4,1,0.4
					c0.1,0,0.3-0.1,0.4-0.3l0.3,0.2l-1.6,3l-0.3-0.2c0-0.1,0-0.2,0-0.3c0-0.2-0.1-0.4-0.3-0.5c-0.2-0.2-0.5-0.4-0.9-0.6
					c-1.2-0.6-2.4-0.9-3.7-0.8C59,2.6,57.8,3.1,57,4c-1,1-1.4,2.3-1.3,3.8c0.1,1.5,0.7,2.7,1.8,3.5c1,0.7,2.2,1,3.7,0.9
					c1.3-0.1,2.5-0.5,3.5-1.3c0.4-0.3,0.7-0.5,0.8-0.7c0.1-0.2,0.2-0.4,0.2-0.6c0-0.1,0-0.2,0-0.3L65.9,9.2z"/>
				<path id="Fill-552" class="st2" d="M143.5,29.1l-3.5,1.1l-0.1-0.3c0.1,0,0.1-0.1,0.1-0.1c0.2-0.2,0.2-0.5,0.2-0.9
					c-0.2-1.4-0.8-2.7-1.8-3.8c-0.5-0.5-0.9-0.9-1.4-1.1c-0.4-0.2-0.7-0.3-1.1-0.3c-0.4,0-0.7,0.1-0.9,0.4c-0.4,0.4-0.4,0.8-0.2,1.4
					c0.1,0.3,0.5,0.8,1.1,1.7l0.9,1.2c0.5,0.7,0.9,1.4,1.2,1.9c0.3,0.5,0.4,1.1,0.5,1.6c0.1,0.5,0,1.1-0.3,1.7
					c-0.2,0.6-0.6,1.1-1,1.5c-0.7,0.7-1.6,1-2.5,1.1c-0.9,0.1-1.8-0.2-2.9-0.8c-0.8-0.4-1.5-1-2.1-1.7c-1.2-1.3-2-2.8-2.5-4.7
					c-0.1-0.4-0.2-0.6-0.2-0.7c-0.1-0.1-0.2-0.1-0.4-0.1l-0.1-0.3l3.5-1.3l0.1,0.3c0,0-0.1,0.1-0.1,0.1c-0.2,0.2-0.3,0.5-0.3,0.9
					c0,0.6,0.2,1.3,0.6,2.1c0.4,0.8,0.8,1.5,1.4,2.1c0.6,0.6,1.2,1.1,1.8,1.3c0.4,0.1,0.7,0.2,1,0.1c0.3,0,0.6-0.2,0.9-0.4
					c0.3-0.3,0.4-0.7,0.2-1.2c-0.1-0.3-0.5-0.9-1.1-1.7l-0.9-1.2c-0.6-0.8-1-1.4-1.2-1.7c-0.2-0.4-0.4-0.8-0.5-1.2
					c-0.2-0.6-0.2-1.3,0.1-1.9c0.2-0.6,0.6-1.1,1.1-1.6c0.9-0.8,1.8-1.2,2.9-1.2c1.4,0,2.8,0.8,4.2,2.3c0.6,0.6,1,1.2,1.4,1.9
					c0.4,0.7,0.7,1.5,1.1,2.7c0.1,0.4,0.2,0.6,0.3,0.7c0.1,0.1,0.3,0.2,0.5,0.2L143.5,29.1z"/>
			</g>
		</g>
	</g>
</g>
</svg>
