<?xml version="1.0" encoding="UTF-8"?>
<svg id="Layer_1" data-name="Layer 1" xmlns="http://www.w3.org/2000/svg" viewBox="0 0 96 96">
  <defs>
    <style>
      .cls-1 {
        fill: #fff;
      }
    </style>
  </defs>
  <path class="cls-1" d="M0,0V96H96V0H0ZM95,89c0,3.31-2.69,6-6,6H7c-3.31,0-6-2.69-6-6V7C1,3.69,3.69,1,7,1H89c3.31,0,6,2.69,6,6V89Z"/>
  <path d="M89,3c2.21,0,4,1.79,4,4V89c0,2.21-1.79,4-4,4H7c-2.21,0-4-1.79-4-4V7c0-2.21,1.79-4,4-4H89m0-2H7C3.69,1,1,3.69,1,7V89c0,3.31,2.69,6,6,6H89c3.31,0,6-2.69,6-6V7c0-3.31-2.69-6-6-6h0Z"/>
</svg>