<?xml version="1.0" encoding="UTF-8"?>
  <svg id="Layer_1" xmlns="http://www.w3.org/2000/svg" width="96" height="96" viewBox="0 0 96 96">
  <defs><style>.cls-1{fill:#fff;}</style></defs>
  <g><path class="cls-1" d="M91.5,96c2.48,0,4.5-2.02,4.5-4.5v4.5h-4.5Zm-90.5,0V1H96V5.5c0-2.48-2.02-4.5-4.5-4.5H5.5C3.02,1,1,3.02,1,5.5V91.5c0,2.48,2.02,4.5,4.5,4.5H1Z"/><path class="cls-1" d="M95.5,1.5v1.01c-.29-.38-.62-.72-1.01-1.01h1.01M2.51,1.5c-.38,.29-.72,.62-1.01,1.01V1.5h1.01M95.5,94.49v1.01h-1.01c.38-.29,.72-.62,1.01-1.01m-94,0c.29,.38,.62,.72,1.01,1.01H1.5v-1.01M96.5,.5H.5V96.5H96.5V.5h0ZM5.5,95.5c-2.2,0-4-1.8-4-4V5.5C1.5,3.3,3.3,1.5,5.5,1.5H91.5c2.2,0,4,1.8,4,4V91.5c0,2.2-1.8,4-4,4H5.5Z"/></g><path d="M91.5,2.5c1.66,0,3,1.35,3,3V91.5c0,1.66-1.35,3-3,3H5.5c-1.66,0-3-1.35-3-3V5.5c0-1.66,1.35-3,3-3H91.5m0-1H5.5C3.3,1.5,1.5,3.3,1.5,5.5V91.5c0,2.2,1.8,4,4,4H91.5c2.2,0,4-1.8,4-4V5.5c0-2.2-1.8-4-4-4h0Z"/></svg>