<?xml version="1.0" encoding="UTF-8"?><svg id="Medium" xmlns="http://www.w3.org/2000/svg" viewBox="0 0 357.36 61.94"><defs><style>.cls-1{fill:#fff;}.cls-2{isolation:isolate;}</style></defs><path class="cls-1" d="m215.18,23.32h-24.15l-7.11-23.32-7.3,23.33h-23.9l19.18,14.99-7.3,23.62,19.31-14.67,19.05,14.67-7.29-23.63,19.52-15h-.01Zm-31.25,16.49l-8.69,6.6,3.28-10.63-8.63-6.74h10.76l3.28-10.5,3.2,10.49h10.87l-8.78,6.75,3.28,10.63-8.57-6.6h0Z"/><g class="cls-2"><g class="cls-2"><path class="cls-1" d="m0,55.24V8.12h10.88v20.31L28.14,8.12h12.21l-17.65,21.04,18.85,26.08h-12.48l-13.27-18.91-4.91,5.04v13.87H0Z"/></g><g class="cls-2"><path class="cls-1" d="m38.55,31.22c0-2.83.52-5.63,1.56-8.39,1.04-2.76,2.59-5.29,4.65-7.56,2.06-2.28,4.55-4.09,7.47-5.44,2.92-1.35,6.21-2.02,9.89-2.02,4.42,0,8.26.95,11.51,2.85,3.25,1.9,5.7,4.38,7.33,7.43l-8.43,5.91c-.66-1.68-1.58-3-2.75-3.95-1.17-.95-2.46-1.61-3.85-1.99-1.39-.38-2.75-.56-4.08-.56-2.04,0-3.83.41-5.38,1.23-1.55.82-2.83,1.91-3.85,3.28-1.02,1.37-1.78,2.9-2.29,4.58-.51,1.68-.76,3.34-.76,4.98,0,1.9.3,3.72.9,5.44.6,1.73,1.44,3.25,2.52,4.58,1.08,1.33,2.39,2.38,3.92,3.15s3.24,1.16,5.14,1.16c1.33,0,2.68-.21,4.05-.63,1.37-.42,2.64-1.12,3.82-2.09,1.17-.97,2.07-2.26,2.69-3.85l8.96,5.31c-.97,2.3-2.52,4.27-4.65,5.91-2.12,1.64-4.51,2.89-7.17,3.75-2.65.86-5.31,1.29-7.96,1.29-3.41,0-6.53-.7-9.36-2.09-2.83-1.39-5.29-3.25-7.37-5.57-2.08-2.32-3.68-4.93-4.81-7.83s-1.69-5.85-1.69-8.86Z"/></g></g><g class="cls-2"><g class="cls-2"><path class="cls-1" d="m218.68,27.47c-.04-1.28-.11-2.41-.19-3.39h5.7c.08.77.15,1.65.19,2.66.04,1,.06,1.82.06,2.46h.19c.85-1.79,2.1-3.23,3.74-4.32s3.49-1.63,5.54-1.63c.94,0,1.73.09,2.37.26l-.26,5.57c-.85-.21-1.77-.32-2.75-.32-1.45,0-2.71.27-3.78.8-1.07.53-1.95,1.25-2.66,2.14-.7.9-1.23,1.93-1.57,3.1-.34,1.17-.51,2.4-.51,3.68v15.94h-6.02v-23.81c0-.81-.02-1.86-.06-3.14Z"/></g><g class="cls-2"><path class="cls-1" d="m264.31,49.61c-1.15,1.83-2.72,3.23-4.7,4.19-1.98.96-4.06,1.44-6.24,1.44-2.35,0-4.46-.42-6.34-1.25-1.88-.83-3.48-1.97-4.8-3.42-1.32-1.45-2.35-3.16-3.07-5.12-.73-1.96-1.09-4.05-1.09-6.27s.36-4.3,1.09-6.24c.72-1.94,1.76-3.64,3.1-5.09s2.95-2.58,4.83-3.39c1.88-.81,3.95-1.22,6.21-1.22,2.47,0,4.63.52,6.46,1.57,1.83,1.05,3.29,2.31,4.35,3.81h.13V6.03h6.02v48.38h-5.82v-4.8h-.13Zm-19.97-10.4c0,1.4.21,2.77.64,4.08.43,1.32,1.07,2.49,1.92,3.51.85,1.02,1.9,1.84,3.14,2.46,1.24.62,2.69.93,4.35.93,1.54,0,2.93-.3,4.19-.89,1.26-.6,2.34-1.39,3.23-2.39.9-1,1.59-2.16,2.08-3.48.49-1.32.74-2.7.74-4.15s-.25-2.83-.74-4.15c-.49-1.32-1.18-2.49-2.08-3.51-.9-1.02-1.97-1.83-3.23-2.42-1.26-.6-2.66-.89-4.19-.89-1.66,0-3.12.3-4.35.89-1.24.6-2.28,1.4-3.14,2.42-.85,1.02-1.49,2.19-1.92,3.51-.43,1.32-.64,2.68-.64,4.08Z"/></g><g class="cls-2"><path class="cls-1" d="m298.17,54.41c-.09-.77-.15-1.63-.19-2.59-.04-.96-.06-1.76-.06-2.4h-.13c-.77,1.62-2.06,3-3.87,4.13-1.81,1.13-3.83,1.7-6.05,1.7-1.96,0-3.66-.32-5.09-.96-1.43-.64-2.6-1.53-3.52-2.66-.92-1.13-1.6-2.44-2.05-3.94-.45-1.49-.67-3.09-.67-4.8v-18.82h6.02v16.77c0,1.24.1,2.42.29,3.55.19,1.13.54,2.12,1.06,2.98.51.85,1.22,1.54,2.11,2.05.9.51,2.05.77,3.46.77,2.43,0,4.39-.91,5.89-2.72,1.49-1.81,2.24-4.23,2.24-7.26v-16.13h6.02v23.81c0,.81.02,1.86.06,3.14.04,1.28.11,2.41.19,3.39h-5.7Z"/></g><g class="cls-2"><path class="cls-1" d="m329.27,31.75c-.68-1.11-1.64-2.02-2.88-2.72-1.24-.7-2.62-1.06-4.16-1.06-.68,0-1.37.07-2.05.22-.68.15-1.29.38-1.82.7-.53.32-.96.73-1.28,1.22-.32.49-.48,1.1-.48,1.82,0,1.28.58,2.23,1.73,2.85,1.15.62,2.88,1.18,5.18,1.7,1.45.34,2.79.75,4.03,1.22,1.24.47,2.31,1.06,3.23,1.76.92.7,1.63,1.55,2.14,2.53.51.98.77,2.13.77,3.46,0,1.79-.34,3.31-1.02,4.54-.68,1.24-1.59,2.25-2.72,3.04-1.13.79-2.42,1.35-3.87,1.7-1.45.34-2.94.51-4.48.51-2.3,0-4.56-.45-6.75-1.34-2.2-.9-4.02-2.26-5.47-4.1l4.29-3.65c.81,1.2,1.93,2.2,3.36,3.01,1.43.81,3,1.22,4.7,1.22.77,0,1.5-.07,2.21-.22s1.34-.39,1.92-.74c.58-.34,1.03-.79,1.38-1.34.34-.55.51-1.26.51-2.11,0-1.41-.67-2.45-2.02-3.14-1.34-.68-3.32-1.32-5.92-1.92-1.02-.26-2.06-.57-3.1-.93-1.05-.36-2-.86-2.85-1.5-.85-.64-1.55-1.44-2.08-2.4-.53-.96-.8-2.14-.8-3.55,0-1.62.33-3.02.99-4.19.66-1.17,1.53-2.13,2.59-2.88,1.07-.75,2.28-1.3,3.65-1.66,1.37-.36,2.77-.54,4.22-.54,2.18,0,4.28.43,6.3,1.28,2.03.85,3.59,2.09,4.7,3.71l-4.16,3.52Z"/></g><g class="cls-2"><path class="cls-1" d="m357.36,29h-8.06v15.76c0,1.83.34,3.14,1.02,3.92.68.79,1.77,1.18,3.26,1.18.55,0,1.15-.06,1.79-.18.64-.12,1.22-.29,1.73-.53l.19,4.93c-.73.26-1.53.46-2.4.61-.88.15-1.78.22-2.72.22-2.86,0-5.05-.79-6.56-2.37-1.51-1.58-2.27-3.95-2.27-7.1v-16.45h-5.82v-4.93h5.82v-8.7h5.95v8.7h8.06v4.93Z"/></g></g><g class="cls-2"><g class="cls-2"><path class="cls-1" d="m122.37,17.48c-.9-1.24-2.11-2.25-3.65-3.04-1.54-.79-3.26-1.18-5.18-1.18-1.02,0-2.06.14-3.1.42-1.05.28-2,.73-2.85,1.34-.85.62-1.55,1.39-2.08,2.3-.53.92-.8,2.02-.8,3.3s.24,2.27.74,3.1c.49.83,1.15,1.54,1.98,2.11s1.81,1.07,2.94,1.47c1.13.41,2.34.82,3.62,1.25,1.54.47,3.09,1,4.67,1.6,1.58.6,3.01,1.39,4.29,2.37,1.28.98,2.33,2.21,3.14,3.68.81,1.47,1.22,3.34,1.22,5.6s-.44,4.38-1.31,6.11c-.88,1.73-2.04,3.16-3.49,4.29-1.45,1.13-3.13,1.97-5.02,2.53-1.9.55-3.85.83-5.86.83-2.86,0-5.62-.56-8.29-1.66-2.67-1.11-4.88-2.75-6.62-4.93l4.93-4.16c1.07,1.58,2.5,2.86,4.29,3.84s3.73,1.47,5.82,1.47c1.07,0,2.13-.15,3.2-.45,1.07-.3,2.04-.77,2.91-1.41.87-.64,1.59-1.44,2.14-2.4.55-.96.83-2.12.83-3.49s-.29-2.51-.86-3.42c-.58-.92-1.35-1.7-2.34-2.34-.98-.64-2.12-1.18-3.42-1.63-1.3-.45-2.68-.91-4.13-1.38-1.45-.43-2.88-.95-4.29-1.57-1.41-.62-2.67-1.41-3.78-2.37-1.11-.96-2.01-2.14-2.69-3.55-.68-1.41-1.02-3.16-1.02-5.25,0-2.26.46-4.2,1.38-5.82.92-1.62,2.11-2.97,3.58-4.03,1.47-1.07,3.14-1.84,4.99-2.34,1.86-.49,3.72-.74,5.6-.74,2.65,0,5.12.47,7.42,1.41,2.3.94,4.16,2.2,5.57,3.78l-4.48,4.35Z"/></g><g class="cls-2"><path class="cls-1" d="m149.38,29h-8.06v15.76c0,1.83.34,3.14,1.02,3.92.68.79,1.77,1.18,3.26,1.18.55,0,1.15-.06,1.79-.18.64-.12,1.22-.29,1.73-.53l.19,4.93c-.73.26-1.53.46-2.4.61-.88.15-1.78.22-2.72.22-2.86,0-5.05-.79-6.56-2.37-1.52-1.58-2.27-3.95-2.27-7.1v-16.45h-5.82v-4.93h5.82v-8.7h5.95v8.7h8.06v4.93Z"/></g></g></svg>