<?xml version="1.0" encoding="UTF-8"?><svg id="Text" xmlns="http://www.w3.org/2000/svg" viewBox="0 0 363.4 85.08"><defs><style>.cls-1{letter-spacing:.02em;}.cls-2{font-family:RalewayRoman-Black, Raleway;font-size:66.36px;font-variation-settings:'wght' 900;}.cls-2,.cls-3,.cls-4{fill:#fff;}.cls-5{letter-spacing:-.07em;}.cls-6{letter-spacing:-.01em;}.cls-7{letter-spacing:-.02em;}.cls-8{letter-spacing:-.02em;}.cls-9{letter-spacing:-.02em;}.cls-10{letter-spacing:-.06em;}.cls-4{font-family:AvenirNext-DemiBold, 'Avenir Next';font-size:64px;}</style></defs><text class="cls-2" transform="translate(0 56.74)"><tspan class="cls-5" x="0" y="0">K</tspan><tspan class="cls-7" x="41.27" y="0">C</tspan></text><text class="cls-4" transform="translate(98.85 55.7)"><tspan class="cls-9" x="0" y="0">S</tspan><tspan x="35.71" y="0">t</tspan></text><text class="cls-4" transform="translate(216.07 55.7)"><tspan class="cls-8" x="0" y="0">r</tspan><tspan class="cls-10" x="22.08" y="0">d</tspan><tspan class="cls-6" x="59.07" y="0">u</tspan><tspan class="cls-1" x="95.55" y="0">s</tspan><tspan x="125.57" y="0">t</tspan></text><path class="cls-3" d="M218.13,24.97h-23.28l-6.85-22.47-7.03,22.49h-23.04l18.48,14.45-7.04,22.77,18.61-14.14,18.36,14.14-7.03-22.77,18.81-14.46Zm-30.15,16.48l-8.83,6.71,3.34-10.8-8.77-6.85h10.93l3.34-10.67,3.25,10.66h11.04l-8.92,6.86,3.34,10.8-8.71-6.71Z"/></svg>