<?xml version="1.0" encoding="UTF-8"?><svg id="Transparent_Regular" xmlns="http://www.w3.org/2000/svg" viewBox="0 0 360 64"><defs><style>.cls-1{fill:#fff;}</style></defs><g id="Transparent"><path class="cls-1" d="M1.13,.44V64.44H361.13V.44H1.13ZM30.03,56.74l-11.68-17.32-3.58,3.72v13.6H1.83V9.62H14.77V27.54L29.1,9.62h14.6L26.58,30.72l18.31,26.01h-14.86Zm49.7-4.71c-2.17,1.64-4.62,2.89-7.37,3.75-2.74,.86-5.46,1.29-8.16,1.29-3.5,0-6.69-.7-9.59-2.09-2.9-1.39-5.4-3.25-7.5-5.57-2.1-2.32-3.73-4.93-4.88-7.83-1.15-2.9-1.73-5.85-1.73-8.86s.54-5.7,1.63-8.46c1.08-2.76,2.67-5.28,4.74-7.53,2.08-2.26,4.61-4.06,7.6-5.41,2.99-1.35,6.36-2.02,10.12-2.02,4.51,0,8.45,.94,11.81,2.82,3.36,1.88,5.86,4.37,7.5,7.47l-9.89,7.03c-.58-1.55-1.4-2.74-2.49-3.58-1.08-.84-2.26-1.43-3.52-1.76-1.26-.33-2.49-.5-3.68-.5-1.86,0-3.46,.37-4.81,1.1-1.35,.73-2.46,1.69-3.32,2.89-.86,1.19-1.5,2.52-1.92,3.98-.42,1.46-.63,2.92-.63,4.38,0,1.64,.24,3.21,.73,4.71,.49,1.5,1.19,2.84,2.12,4.01,.93,1.17,2.07,2.09,3.42,2.75,1.35,.66,2.86,1,4.55,1,1.19,0,2.41-.19,3.65-.56,1.24-.38,2.37-.98,3.38-1.83,1.02-.84,1.79-1.97,2.32-3.38l10.55,6.3c-.93,2.3-2.48,4.27-4.65,5.91Zm47.8-2.37c-.86,1.64-1.98,3-3.36,4.06-1.38,1.07-2.95,1.86-4.72,2.37-1.77,.51-3.55,.77-5.34,.77-1.37,0-2.73-.14-4.1-.42-1.37-.28-2.67-.69-3.9-1.25-1.24-.55-2.39-1.26-3.46-2.11-1.07-.85-2.01-1.83-2.82-2.94l3.97-2.94c.98,1.62,2.36,2.98,4.13,4.06,1.77,1.09,3.85,1.63,6.24,1.63,1.15,0,2.32-.18,3.52-.54,1.19-.36,2.27-.92,3.23-1.66,.96-.75,1.75-1.66,2.37-2.75s.93-2.36,.93-3.81c0-1.58-.31-2.89-.93-3.94-.62-1.04-1.44-1.92-2.46-2.62-1.02-.7-2.2-1.29-3.52-1.76-1.32-.47-2.71-.94-4.16-1.41-1.49-.47-2.97-1-4.42-1.6-1.45-.6-2.75-1.38-3.9-2.34-1.15-.96-2.08-2.14-2.78-3.55-.7-1.41-1.06-3.14-1.06-5.18,0-2.18,.44-4.05,1.31-5.63,.87-1.58,2.02-2.88,3.42-3.9,1.41-1.02,2.97-1.77,4.67-2.24,1.71-.47,3.39-.7,5.06-.7,3.07,0,5.7,.54,7.87,1.63,2.18,1.09,3.82,2.38,4.93,3.87l-3.65,2.94c-.98-1.36-2.24-2.46-3.78-3.3-1.54-.83-3.39-1.25-5.57-1.25-1.11,0-2.24,.17-3.39,.51-1.15,.34-2.2,.86-3.14,1.57-.94,.7-1.7,1.59-2.27,2.66-.58,1.07-.86,2.33-.86,3.78s.28,2.65,.83,3.58c.55,.94,1.29,1.74,2.2,2.4,.91,.66,1.96,1.21,3.13,1.63,1.17,.43,2.39,.85,3.67,1.28,1.57,.51,3.16,1.07,4.75,1.66,1.6,.6,3.03,1.38,4.31,2.34,1.28,.96,2.32,2.18,3.13,3.65,.81,1.47,1.21,3.34,1.21,5.6s-.43,4.21-1.29,5.86Zm23.44-20.26h-8.45v17.47c0,1.11,.11,2.03,.32,2.75,.21,.73,.52,1.29,.93,1.7,.4,.41,.88,.68,1.44,.83,.55,.15,1.15,.22,1.79,.22,.6,0,1.23-.08,1.89-.26,.66-.17,1.29-.41,1.89-.7l.19,3.78c-.77,.3-1.57,.52-2.4,.67-.83,.15-1.74,.22-2.72,.22-.81,0-1.66-.11-2.56-.32-.9-.21-1.73-.62-2.5-1.22-.77-.6-1.4-1.41-1.89-2.43-.49-1.02-.74-2.37-.74-4.03V29.4h-6.21v-3.65h6.21v-8.45h4.35v8.45h8.45v3.65Zm53.17,32.81l-18.36-14.14-18.61,14.14,7.04-22.77-18.48-14.44h23.04l7.03-22.49,6.85,22.47h23.28l-18.81,14.46,7.03,22.77Zm32.57-32.74c-.26-.08-.68-.17-1.28-.26-.6-.08-1.2-.13-1.79-.13-1.15,0-2.26,.21-3.33,.64-1.07,.43-2,1.1-2.78,2.01-.79,.92-1.43,2.08-1.92,3.51-.49,1.43-.74,3.14-.74,5.14v15.32h-4.35v-23.36c0-.81-.02-1.86-.06-3.14-.04-1.28-.11-2.43-.19-3.46h4.16c.08,.81,.15,1.71,.19,2.69,.04,.98,.06,1.79,.06,2.43h.13c.85-1.75,2.13-3.17,3.84-4.26,1.71-1.09,3.63-1.63,5.76-1.63,.55,0,1.06,.02,1.5,.06,.45,.04,.91,.13,1.38,.26l-.58,4.16Zm34.75,26.24h-4.35v-5.06h-.13c-1.28,1.92-2.94,3.37-4.99,4.35-2.05,.98-4.16,1.47-6.34,1.47-2.35,0-4.47-.41-6.37-1.22-1.9-.81-3.52-1.92-4.86-3.33s-2.39-3.07-3.14-4.99c-.75-1.92-1.12-3.99-1.12-6.21s.37-4.29,1.12-6.21c.75-1.92,1.79-3.58,3.14-4.99,1.34-1.41,2.96-2.52,4.86-3.33,1.9-.81,4.02-1.22,6.37-1.22,2.18,0,4.29,.5,6.34,1.5,2.05,1,3.71,2.49,4.99,4.45h.13V7.32h4.35V55.7Zm29.82,0c-.09-.81-.15-1.71-.19-2.69-.04-.98-.06-1.79-.06-2.43h-.13c-.85,1.75-2.24,3.17-4.16,4.26-1.92,1.09-3.95,1.63-6.08,1.63-3.8,0-6.65-1.13-8.54-3.39-1.9-2.26-2.85-5.25-2.85-8.96V25.75h4.35v16.58c0,1.58,.13,3.01,.38,4.29,.26,1.28,.69,2.38,1.31,3.3,.62,.92,1.45,1.63,2.5,2.14,1.04,.51,2.36,.77,3.94,.77,1.15,0,2.27-.23,3.36-.7s2.06-1.18,2.91-2.14,1.54-2.18,2.05-3.65c.51-1.47,.77-3.21,.77-5.22v-15.36h4.35v23.36c0,.81,.02,1.86,.06,3.14,.04,1.28,.11,2.43,.19,3.46h-4.16Zm33.44-4.19c-.66,1.17-1.53,2.13-2.59,2.88-1.07,.75-2.27,1.28-3.62,1.6-1.34,.32-2.7,.48-4.06,.48-2.26,0-4.46-.47-6.59-1.41-2.13-.94-3.88-2.41-5.25-4.42l3.46-2.56c.77,1.32,1.9,2.43,3.39,3.33,1.49,.9,3.14,1.34,4.93,1.34,.94,0,1.83-.08,2.69-.26,.85-.17,1.6-.47,2.24-.9,.64-.43,1.15-.97,1.54-1.63,.38-.66,.58-1.48,.58-2.46,0-1.58-.76-2.76-2.27-3.55-1.51-.79-3.7-1.53-6.56-2.21-.9-.21-1.85-.48-2.85-.8-1-.32-1.93-.79-2.78-1.41-.85-.62-1.56-1.4-2.11-2.34-.55-.94-.83-2.11-.83-3.52,0-1.54,.3-2.85,.9-3.94,.6-1.09,1.4-1.98,2.4-2.69,1-.7,2.14-1.23,3.42-1.57,1.28-.34,2.6-.51,3.97-.51,2.09,0,4.12,.47,6.08,1.41,1.96,.94,3.43,2.26,4.42,3.97l-3.33,2.5c-.64-1.24-1.61-2.25-2.91-3.04-1.3-.79-2.78-1.18-4.45-1.18-.77,0-1.54,.09-2.3,.26-.77,.17-1.45,.45-2.05,.83-.6,.38-1.08,.88-1.44,1.47-.36,.6-.54,1.3-.54,2.11,0,1.41,.58,2.49,1.73,3.23,1.15,.75,2.97,1.38,5.44,1.89,3.54,.73,6.15,1.78,7.84,3.17,1.69,1.39,2.53,3.25,2.53,5.6,0,1.71-.33,3.15-.99,4.32Zm24.73-22.11h-8.45v17.47c0,1.11,.11,2.03,.32,2.75,.21,.73,.52,1.29,.93,1.7,.4,.41,.88,.68,1.44,.83,.55,.15,1.15,.22,1.79,.22,.6,0,1.23-.08,1.89-.26,.66-.17,1.29-.41,1.89-.7l.19,3.78c-.77,.3-1.57,.52-2.4,.67-.83,.15-1.74,.22-2.72,.22-.81,0-1.66-.11-2.56-.32-.9-.21-1.73-.62-2.5-1.22-.77-.6-1.4-1.41-1.89-2.43-.49-1.02-.74-2.37-.74-4.03V29.4h-6.21v-3.65h6.21v-8.45h4.35v8.45h8.45v3.65Z"/><path class="cls-1" d="M264.35,32.12c-1.02-1.09-2.24-1.94-3.65-2.56-1.41-.62-2.94-.93-4.61-.93-1.79,0-3.39,.32-4.8,.96-1.41,.64-2.59,1.5-3.55,2.59s-1.7,2.37-2.21,3.84c-.51,1.47-.77,3.04-.77,4.7s.26,3.23,.77,4.7c.51,1.47,1.25,2.75,2.21,3.84s2.14,1.94,3.55,2.56c1.41,.62,3.01,.93,4.8,.93,1.66,0,3.2-.31,4.61-.93,1.41-.62,2.62-1.46,3.65-2.53,1.02-1.07,1.82-2.34,2.4-3.81,.58-1.47,.86-3.06,.86-4.77s-.29-3.3-.86-4.77-1.38-2.75-2.4-3.84Z"/><polygon class="cls-1" points="189.03 30.5 185.77 19.84 182.44 30.5 171.51 30.51 180.28 37.36 176.94 48.16 185.77 41.45 194.48 48.16 191.14 37.35 200.07 30.5 189.03 30.5"/></g></svg>