<?xml version="1.0" encoding="UTF-8"?><svg id="Medium" xmlns="http://www.w3.org/2000/svg" viewBox="0 0 360 64"><defs><style>.cls-1{font-family:RalewayRoman-Black, Raleway;font-size:66.36px;font-variation-settings:'wght' 900;}.cls-1,.cls-2,.cls-3{fill:#fff;}.cls-4{letter-spacing:-.07em;}.cls-5{letter-spacing:-.02em;}.cls-6{letter-spacing:-.02em;}.cls-3{font-family:AvenirNext-Medium, 'Avenir Next';font-size:64px;}.cls-7{letter-spacing:-.06em;}.cls-8{letter-spacing:-.03em;}.cls-9{letter-spacing:-.02em;}.cls-10{letter-spacing:.02em;}</style></defs><path class="cls-2" d="M216.66,24.37h-24.15l-7.11-23.32-7.3,23.33h-23.9l19.18,14.99-7.3,23.62,19.31-14.67,19.05,14.67-7.29-23.63,19.52-15Zm-31.25,16.49l-8.69,6.6,3.28-10.63-8.63-6.74h10.76l3.28-10.5,3.2,10.49h10.87l-8.78,6.75,3.28,10.63-8.57-6.6Z"/><text class="cls-1" transform="translate(-3.03 56.29)"><tspan class="cls-4" x="0" y="0">K</tspan><tspan class="cls-6" x="41.27" y="0">C</tspan></text><text class="cls-3" transform="translate(215.04 55.46)"><tspan class="cls-8" x="0" y="0">r</tspan><tspan class="cls-7" x="21.38" y="0">d</tspan><tspan class="cls-5" x="58.05" y="0">u</tspan><tspan class="cls-10" x="94.14" y="0">s</tspan><tspan x="123.77" y="0">t</tspan></text><text class="cls-3" transform="translate(95.82 55.46)"><tspan class="cls-9" x="0" y="0">S</tspan><tspan x="35.01" y="0">t</tspan></text></svg>