<svg id="_48px" data-name="48px" xmlns="http://www.w3.org/2000/svg" viewBox="0 0 274 48"><defs><style>.cls-1{fill:#fff;}</style></defs><polygon class="cls-1" points="143.72 23.48 141.31 16.08 138.91 23.48 131.13 23.48 137.43 28.05 135.02 35.45 141.31 30.88 147.61 35.45 145.21 28.05 151.5 23.48 143.72 23.48"/><path class="cls-1" d="M0,0V48H274V0ZM25.13,42.22,16.68,29.69l-2.59,2.69v9.84H4.73V8.14h9.36v13l10.37-13H35L22.63,23.41,35.88,42.22Zm36-3.41a17.43,17.43,0,0,1-5.33,2.72,19.68,19.68,0,0,1-5.9.93A15.79,15.79,0,0,1,43,41a17.49,17.49,0,0,1-5.42-4A18.56,18.56,0,0,1,34,31.25a17.23,17.23,0,0,1-1.25-6.4,16.52,16.52,0,0,1,1.18-6.12,17.29,17.29,0,0,1,3.43-5.45,16.66,16.66,0,0,1,5.5-3.91A17.53,17.53,0,0,1,50.19,7.9a17.21,17.21,0,0,1,8.54,2,13.23,13.23,0,0,1,5.42,5.4L57,20.43a5.6,5.6,0,0,0-1.8-2.59,7,7,0,0,0-2.54-1.27A10.45,10.45,0,0,0,50,16.21a7.21,7.21,0,0,0-3.48.79,7.13,7.13,0,0,0-2.4,2.09A9.38,9.38,0,0,0,42.72,22a11.49,11.49,0,0,0-.45,3.16,11,11,0,0,0,.52,3.41,9.42,9.42,0,0,0,1.54,2.91,7.25,7.25,0,0,0,2.47,2,7.36,7.36,0,0,0,3.29.72,9.17,9.17,0,0,0,2.64-.41,7,7,0,0,0,2.45-1.32A5.77,5.77,0,0,0,56.86,30l7.63,4.56A9.92,9.92,0,0,1,61.13,38.81Zm36.09-2a9.9,9.9,0,0,1-2.69,3.39,11.6,11.6,0,0,1-3.93,2,16.53,16.53,0,0,1-4.75.67,17.74,17.74,0,0,1-6.48-1.22A12.55,12.55,0,0,1,74.18,38l4.32-4a8.61,8.61,0,0,0,3.34,2.74,9.41,9.41,0,0,0,4.1,1,9.06,9.06,0,0,0,2.16-.27,5.68,5.68,0,0,0,2-.88A4.87,4.87,0,0,0,91.53,35a4.52,4.52,0,0,0,.55-2.33,3.74,3.74,0,0,0-.62-2.23,5.44,5.44,0,0,0-1.68-1.54,12,12,0,0,0-2.49-1.13l-3-1a29.45,29.45,0,0,1-3.07-1.15,10.49,10.49,0,0,1-2.76-1.77,8.48,8.48,0,0,1-2-2.72,9.12,9.12,0,0,1-.77-4,8.81,8.81,0,0,1,1.08-4.47,9.42,9.42,0,0,1,2.83-3.09,12.56,12.56,0,0,1,4-1.83,17.34,17.34,0,0,1,4.53-.6,16.4,16.4,0,0,1,5.26.91A12.85,12.85,0,0,1,98,10.8l-3.94,4.32A7.34,7.34,0,0,0,91.34,13a8.09,8.09,0,0,0-3.53-.84,8.54,8.54,0,0,0-2.11.27,6.31,6.31,0,0,0-1.92.81,4.51,4.51,0,0,0-1.41,1.44,4,4,0,0,0-.56,2.14,3.83,3.83,0,0,0,.48,2,4.47,4.47,0,0,0,1.32,1.39,9.23,9.23,0,0,0,2,1c.8.28,1.68.57,2.64.86s2.22.75,3.39,1.2a13.05,13.05,0,0,1,3.21,1.78,8.62,8.62,0,0,1,2.4,2.78A8.42,8.42,0,0,1,98.23,32,10.67,10.67,0,0,1,97.22,36.79ZM114.6,23.57h-5.76v10.7a5.26,5.26,0,0,0,.55,2.55c.37.67,1.19,1,2.47,1a7.12,7.12,0,0,0,1.25-.12,5,5,0,0,0,1.2-.36l.19,4.52a9.49,9.49,0,0,1-1.82.45,13.21,13.21,0,0,1-2,.17,9.2,9.2,0,0,1-3.74-.65,5.66,5.66,0,0,1-2.28-1.77,6.52,6.52,0,0,1-1.15-2.6,14.84,14.84,0,0,1-.32-3.14V23.57h-4V19h4V12.29h5.67V19h5.76Zm41.55,23.64L141.32,36.43,126.48,47.21l5.66-17.44L117.31,19h18.34l5.67-17.45L147,19h18.35L150.49,29.77ZM181.23,23.7a9,9,0,0,0-1-.2,7.39,7.39,0,0,0-.8,0,6.06,6.06,0,0,0-3.16.72,5.73,5.73,0,0,0-1.88,1.73A6.35,6.35,0,0,0,173.5,28a8,8,0,0,0-.24,1.68V42H167.5V19H173v3.84h.1a8.3,8.3,0,0,1,2.69-3.27,6.7,6.7,0,0,1,4-1.25l.72,0a2.22,2.22,0,0,1,.67.12ZM206.29,42h-5.48V38.53h-.09a7.81,7.81,0,0,1-3.34,3.07,10.24,10.24,0,0,1-4.58,1.06,10.91,10.91,0,0,1-4.73-1A10.64,10.64,0,0,1,184.52,39a11.69,11.69,0,0,1-2.26-3.88,14.14,14.14,0,0,1-.79-4.78,13.43,13.43,0,0,1,.82-4.75,11.59,11.59,0,0,1,2.3-3.84,10.75,10.75,0,0,1,8.06-3.51,10,10,0,0,1,5,1.25,8.85,8.85,0,0,1,1.61,1.15,9.69,9.69,0,0,1,1.1,1.2h.15V5.7h5.76Zm26.78,0H227.6v-3.7h-.1a7.47,7.47,0,0,1-2.66,3.05,7.67,7.67,0,0,1-4.49,1.32,8.77,8.77,0,0,1-3.86-.79,7.54,7.54,0,0,1-2.64-2.09,8.5,8.5,0,0,1-1.52-3,12.5,12.5,0,0,1-.48-3.45V19h5.76V31.71a15.77,15.77,0,0,0,.15,2.12,5.59,5.59,0,0,0,.62,2,4.11,4.11,0,0,0,1.32,1.46,3.82,3.82,0,0,0,2.23.58,5.06,5.06,0,0,0,2.38-.55A5,5,0,0,0,226,35.89a6.27,6.27,0,0,0,1-2,7.73,7.73,0,0,0,.34-2.28V19h5.76Zm10.82-15a24,24,0,0,0,3.72,1.12,22.15,22.15,0,0,1,2.62.77,9.48,9.48,0,0,1,2.4,1.27,6.36,6.36,0,0,1,1.75,2,5.68,5.68,0,0,1,.67,2.86,7.36,7.36,0,0,1-.79,3.57,6.74,6.74,0,0,1-2.11,2.38,8.79,8.79,0,0,1-3.07,1.32,16.09,16.09,0,0,1-3.63.41,14.32,14.32,0,0,1-5.23-1,11,11,0,0,1-4.22-2.8l3.79-3.56a7.52,7.52,0,0,0,2.5,2.07,7.17,7.17,0,0,0,3.4.81,5.7,5.7,0,0,0,1.28-.14,4.46,4.46,0,0,0,1.2-.46,2.36,2.36,0,0,0,.88-.84,2.3,2.3,0,0,0,.34-1.29,2.14,2.14,0,0,0-1.32-2.07,21.38,21.38,0,0,0-4-1.24,19.74,19.74,0,0,1-2.52-.75,7.78,7.78,0,0,1-2.18-1.2,5.32,5.32,0,0,1-1.54-1.85,5.87,5.87,0,0,1-.58-2.73,6.64,6.64,0,0,1,.79-3.31A6.83,6.83,0,0,1,240.17,20a9.08,9.08,0,0,1,2.93-1.32,13,13,0,0,1,3.36-.44,14.05,14.05,0,0,1,4.87.87,8.12,8.12,0,0,1,3.77,2.64l-3.74,3.31a6.74,6.74,0,0,0-2.11-1.75,5.94,5.94,0,0,0-2.93-.75,5.69,5.69,0,0,0-2.55.58,2,2,0,0,0-1.15,1.92A1.93,1.93,0,0,0,243.89,27Zm27.05-3.44h-5.76V34.26a5.22,5.22,0,0,0,.55,2.54c.37.67,1.19,1,2.47,1a7.12,7.12,0,0,0,1.25-.12,5,5,0,0,0,1.2-.36l.19,4.51a10.24,10.24,0,0,1-1.82.46,13.11,13.11,0,0,1-2,.17,9.23,9.23,0,0,1-3.74-.65A5.68,5.68,0,0,1,261,40a6.55,6.55,0,0,1-1.15-2.59,14.93,14.93,0,0,1-.31-3.14V23.55h-4V19h4V12.27h5.66V19h5.76Z"/><path class="cls-1" d="M198.92,25.38a7.22,7.22,0,0,0-2.14-1.73A5.83,5.83,0,0,0,194,23a6,6,0,0,0-5,2.35,7.48,7.48,0,0,0-1.23,2.38,9,9,0,0,0-.4,2.66,9.28,9.28,0,0,0,.4,2.69,7.58,7.58,0,0,0,1.23,2.4A6.45,6.45,0,0,0,191,37.19a6.18,6.18,0,0,0,2.93.67,6.05,6.05,0,0,0,2.83-.65,6.86,6.86,0,0,0,2.14-1.71,7.31,7.31,0,0,0,1.34-2.37,8,8,0,0,0,.46-2.66,8.14,8.14,0,0,0-.46-2.69A7.25,7.25,0,0,0,198.92,25.38Z"/></svg>