<svg width="364" height="64" viewBox="0 0 364 64" fill="none" xmlns="http://www.w3.org/2000/svg">
<g clip-path="url(#clip0)">
<path d="M218.608 25.28H225.968V30.4H226.096C226.949 28.608 228.144 27.1573 229.68 26.048C231.216 24.9387 233.008 24.384 235.056 24.384C235.355 24.384 235.675 24.4053 236.016 24.448C236.357 24.448 236.656 24.4907 236.912 24.576V31.616C236.4 31.488 235.952 31.4027 235.568 31.36C235.227 31.3173 234.885 31.296 234.544 31.296C232.795 31.296 231.387 31.616 230.32 32.256C229.253 32.896 228.421 33.664 227.824 34.56C227.227 35.456 226.821 36.3733 226.608 37.312C226.395 38.2507 226.288 38.9973 226.288 39.552V56H218.608V25.28ZM272.028 56H264.732V51.392H264.604C263.537 53.184 262.044 54.5493 260.124 55.488C258.246 56.4267 256.22 56.896 254.044 56.896C251.697 56.896 249.585 56.4693 247.708 55.616C245.873 54.72 244.294 53.5467 242.972 52.096C241.692 50.6027 240.689 48.8747 239.964 46.912C239.281 44.9067 238.94 42.7733 238.94 40.512C238.94 38.2507 239.302 36.1387 240.028 34.176C240.753 32.2133 241.777 30.5067 243.1 29.056C244.422 27.6053 246.001 26.4747 247.836 25.664C249.67 24.8107 251.676 24.384 253.852 24.384C255.26 24.384 256.518 24.5547 257.628 24.896C258.737 25.1947 259.697 25.5787 260.508 26.048C261.361 26.5173 262.086 27.0293 262.684 27.584C263.281 28.1387 263.772 28.672 264.156 29.184H264.348V7.616H272.028V56ZM246.748 40.512C246.748 41.7067 246.918 42.9013 247.26 44.096C247.644 45.2907 248.198 46.3573 248.924 47.296C249.649 48.2347 250.566 49.0027 251.676 49.6C252.785 50.1973 254.086 50.496 255.58 50.496C256.988 50.496 258.246 50.2187 259.356 49.664C260.465 49.0667 261.404 48.2987 262.172 47.36C262.982 46.4213 263.58 45.376 263.964 44.224C264.39 43.0293 264.604 41.8347 264.604 40.64C264.604 39.4453 264.39 38.2507 263.964 37.056C263.58 35.8613 262.982 34.7947 262.172 33.856C261.404 32.9173 260.465 32.1493 259.356 31.552C258.246 30.9547 256.988 30.656 255.58 30.656C254.086 30.656 252.785 30.9547 251.676 31.552C250.566 32.1067 249.649 32.8533 248.924 33.792C248.198 34.7307 247.644 35.7973 247.26 36.992C246.918 38.144 246.748 39.3173 246.748 40.512ZM309.39 56H302.094V51.072H301.966C301.283 52.608 300.089 53.9733 298.382 55.168C296.718 56.32 294.734 56.896 292.43 56.896C290.425 56.896 288.697 56.5547 287.246 55.872C285.838 55.1467 284.665 54.208 283.726 53.056C282.83 51.904 282.169 50.5813 281.742 49.088C281.315 47.5947 281.102 46.0587 281.102 44.48V25.28H288.782V42.304C288.782 43.2 288.846 44.1387 288.974 45.12C289.102 46.1013 289.379 46.9973 289.806 47.808C290.233 48.576 290.809 49.216 291.534 49.728C292.302 50.24 293.305 50.496 294.542 50.496C295.737 50.496 296.782 50.2613 297.678 49.792C298.617 49.28 299.363 48.64 299.918 47.872C300.515 47.104 300.963 46.2293 301.262 45.248C301.561 44.224 301.71 43.2 301.71 42.176V25.28H309.39V56ZM335.44 33.472C334.757 32.576 333.819 31.808 332.624 31.168C331.429 30.4853 330.128 30.144 328.72 30.144C327.483 30.144 326.352 30.4 325.328 30.912C324.304 31.424 323.792 32.2773 323.792 33.472C323.792 34.6667 324.347 35.52 325.456 36.032C326.608 36.5013 328.272 36.992 330.448 37.504C331.6 37.76 332.752 38.1013 333.904 38.528C335.099 38.9547 336.165 39.5307 337.104 40.256C338.085 40.9387 338.875 41.8133 339.472 42.88C340.069 43.904 340.368 45.1627 340.368 46.656C340.368 48.5333 340.005 50.1333 339.28 51.456C338.597 52.736 337.659 53.7813 336.464 54.592C335.312 55.4027 333.947 55.9787 332.368 56.32C330.832 56.704 329.232 56.896 327.568 56.896C325.179 56.896 322.853 56.4693 320.592 55.616C318.331 54.72 316.453 53.4613 314.96 51.84L320.016 47.104C320.869 48.2133 321.979 49.1307 323.344 49.856C324.709 50.5813 326.224 50.944 327.888 50.944C328.443 50.944 328.997 50.88 329.552 50.752C330.149 50.624 330.683 50.432 331.152 50.176C331.664 49.8773 332.069 49.4933 332.368 49.024C332.667 48.5547 332.816 47.9787 332.816 47.296C332.816 46.016 332.219 45.0987 331.024 44.544C329.872 43.9893 328.123 43.4347 325.776 42.88C324.624 42.624 323.493 42.304 322.384 41.92C321.317 41.4933 320.357 40.96 319.504 40.32C318.651 39.6373 317.968 38.8053 317.456 37.824C316.944 36.8427 316.688 35.6267 316.688 34.176C316.688 32.4693 317.029 30.9973 317.712 29.76C318.437 28.5227 319.376 27.52 320.528 26.752C321.68 25.9413 322.981 25.344 324.432 24.96C325.883 24.576 327.376 24.384 328.912 24.384C331.131 24.384 333.285 24.768 335.376 25.536C337.509 26.304 339.195 27.4773 340.432 29.056L335.44 33.472ZM342.63 31.424V25.28H348.006V16.384H355.558V25.28H363.238V31.424H355.558V45.696C355.558 47.0613 355.792 48.192 356.262 49.088C356.774 49.984 357.883 50.432 359.59 50.432C360.102 50.432 360.656 50.3893 361.253 50.304C361.851 50.176 362.384 50.0053 362.854 49.792L363.11 55.808C362.427 56.064 361.616 56.256 360.678 56.384C359.739 56.5547 358.843 56.64 357.99 56.64C355.942 56.64 354.278 56.3627 352.998 55.808C351.718 55.2107 350.694 54.4213 349.926 53.44C349.2 52.416 348.688 51.264 348.39 49.984C348.134 48.6613 348.006 47.2533 348.006 45.76V31.424H342.63Z" fill="white"/>
<path d="M122.096 20.16C121.243 19.0507 120.027 18.1333 118.448 17.408C116.912 16.64 115.355 16.256 113.776 16.256C112.837 16.256 111.899 16.384 110.96 16.64C110.021 16.8533 109.168 17.216 108.4 17.728C107.632 18.1973 106.992 18.8373 106.48 19.648C106.011 20.416 105.776 21.3547 105.776 22.464C105.776 23.488 105.989 24.3627 106.416 25.088C106.843 25.8133 107.419 26.432 108.144 26.944C108.912 27.456 109.829 27.904 110.896 28.288C111.963 28.672 113.136 29.056 114.416 29.44C115.867 29.9093 117.36 30.4427 118.896 31.04C120.475 31.6373 121.904 32.4267 123.184 33.408C124.507 34.3893 125.573 35.6267 126.384 37.12C127.237 38.6133 127.664 40.4693 127.664 42.688C127.664 45.12 127.216 47.2533 126.32 49.088C125.424 50.88 124.229 52.3733 122.736 53.568C121.243 54.7627 119.493 55.6587 117.488 56.256C115.483 56.8533 113.371 57.152 111.152 57.152C108.208 57.152 105.328 56.6187 102.512 55.552C99.696 54.4427 97.392 52.8213 95.6 50.688L101.36 45.312C102.469 46.848 103.941 48.064 105.776 48.96C107.653 49.856 109.488 50.304 111.28 50.304C112.219 50.304 113.179 50.1973 114.16 49.984C115.141 49.728 116.016 49.3227 116.784 48.768C117.595 48.2133 118.235 47.5307 118.704 46.72C119.216 45.8667 119.472 44.8213 119.472 43.584C119.472 42.3893 119.195 41.408 118.64 40.64C118.085 39.8293 117.339 39.1467 116.4 38.592C115.461 37.9947 114.352 37.4827 113.072 37.056C111.792 36.6293 110.448 36.1813 109.04 35.712C107.675 35.2853 106.309 34.7733 104.944 34.176C103.579 33.5787 102.341 32.7893 101.232 31.808C100.165 30.8267 99.2907 29.632 98.608 28.224C97.9253 26.7733 97.584 24.9813 97.584 22.848C97.584 20.544 98.0533 18.56 98.992 16.896C99.9733 15.232 101.232 13.8667 102.768 12.8C104.347 11.6907 106.117 10.88 108.08 10.368C110.085 9.81333 112.112 9.536 114.16 9.536C116.464 9.536 118.789 9.94133 121.136 10.752C123.525 11.5627 125.595 12.7787 127.344 14.4L122.096 20.16ZM130.567 31.424V25.28H135.943V16.384H143.495V25.28H151.175V31.424H143.495V45.696C143.495 47.0613 143.73 48.192 144.199 49.088C144.711 49.984 145.82 50.432 147.527 50.432C148.039 50.432 148.594 50.3893 149.191 50.304C149.788 50.176 150.322 50.0053 150.791 49.792L151.047 55.808C150.364 56.064 149.554 56.256 148.615 56.384C147.676 56.5547 146.78 56.64 145.927 56.64C143.879 56.64 142.215 56.3627 140.935 55.808C139.655 55.2107 138.631 54.4213 137.863 53.44C137.138 52.416 136.626 51.264 136.327 49.984C136.071 48.6613 135.943 47.2533 135.943 45.76V31.424H130.567Z" fill="white"/>
<path d="M184.781 11.3805L189.306 25.8572L189.854 27.6115H191.692H206.598L194.456 36.7822L193.052 37.843L193.577 39.5229L198.163 54.1977L186.288 45.228L184.781 44.0899L183.274 45.228L171.399 54.1977L175.985 39.5229L176.51 37.843L175.106 36.7822L162.964 27.6115H177.87H179.708L180.256 25.8572L184.781 11.3805Z" stroke="white" stroke-width="5"/>
<path d="M0.0602503 56V10.56H12.5403V27.84L26.3643 10.56H40.4443L23.9323 30.912L41.5963 56H27.2603L15.9963 39.296L12.5403 42.88V56H0.0602503ZM39.0018 32.896C39.0018 30.1227 39.5138 27.4133 40.5378 24.768C41.6044 22.08 43.1404 19.648 45.1458 17.472C47.1511 15.296 49.5831 13.568 52.4418 12.288C55.3431 10.9653 58.6071 10.304 62.2338 10.304C66.5858 10.304 70.3831 11.2213 73.6258 13.056C76.8684 14.848 79.2791 17.2373 80.8578 20.224L71.3218 27.008C70.7671 25.5147 69.9564 24.3627 68.8898 23.552C67.8658 22.7413 66.7351 22.1867 65.4978 21.888C64.3031 21.5467 63.1298 21.376 61.9778 21.376C59.5884 21.376 57.6258 21.9733 56.0898 23.168C54.5964 24.3627 53.4871 25.8773 52.7618 27.712C52.0364 29.504 51.6738 31.36 51.6738 33.28C51.6738 35.3707 52.0791 37.3333 52.8898 39.168C53.7431 41.0027 54.9378 42.496 56.4738 43.648C58.0524 44.7573 59.9298 45.312 62.1058 45.312C63.2578 45.312 64.4311 45.1413 65.6258 44.8C66.8204 44.416 67.9084 43.8187 68.8898 43.008C69.8711 42.1973 70.6178 41.1093 71.1298 39.744L81.3058 45.824C80.4098 48.0427 78.9164 49.9413 76.8258 51.52C74.7351 53.0987 72.3671 54.3147 69.7218 55.168C67.0764 55.9787 64.4524 56.384 61.8498 56.384C58.4791 56.384 55.3858 55.7227 52.5698 54.4C49.7964 53.0347 47.3858 51.2427 45.3378 49.024C43.3324 46.7627 41.7751 44.2453 40.6658 41.472C39.5564 38.656 39.0018 35.7973 39.0018 32.896Z" fill="white"/>
</g>
<defs>
<clipPath id="clip0">
<rect width="364" height="64" fill="white"/>
</clipPath>
</defs>
</svg>
