<?xml version="1.0" encoding="UTF-8"?><svg id="Transparent_Medium" xmlns="http://www.w3.org/2000/svg" viewBox="0 0 360 64"><defs><style>.cls-1{fill:#fff;}</style></defs><path class="cls-1" d="M263.3,32.67c-.9-1.02-1.97-1.83-3.23-2.42-1.26-.6-2.66-.89-4.19-.89-1.66,0-3.12,.3-4.35,.89-1.24,.6-2.28,1.4-3.14,2.42s-1.49,2.19-1.92,3.51c-.43,1.32-.64,2.68-.64,4.08s.21,2.77,.64,4.08c.43,1.32,1.07,2.49,1.92,3.51,.85,1.02,1.9,1.84,3.14,2.46s2.69,.92,4.35,.92c1.54,0,2.93-.3,4.19-.89,1.26-.6,2.34-1.39,3.23-2.39,.9-1,1.59-2.16,2.08-3.48,.49-1.32,.74-2.7,.74-4.15s-.25-2.83-.74-4.15c-.49-1.32-1.18-2.49-2.08-3.51Z"/><polygon class="cls-1" points="188.62 30.08 185.42 19.59 182.13 30.09 171.38 30.09 180.01 36.83 176.72 47.47 185.41 40.86 193.98 47.47 190.7 36.83 199.48 30.08 188.62 30.08"/><path class="cls-1" d="M0,0V64H360V0H0ZM29.22,56.29l-11.68-17.32-3.58,3.72v13.6H1.02V9.18H13.96V27.09L28.29,9.18h14.6L25.77,30.28l18.31,26.01h-14.86Zm49.7-4.71c-2.17,1.64-4.62,2.89-7.37,3.75-2.74,.86-5.46,1.29-8.16,1.29-3.5,0-6.69-.7-9.59-2.09-2.9-1.39-5.4-3.25-7.5-5.57-2.1-2.32-3.73-4.93-4.88-7.83-1.15-2.9-1.73-5.85-1.73-8.86s.54-5.7,1.63-8.46c1.08-2.76,2.67-5.28,4.74-7.53,2.08-2.26,4.61-4.06,7.6-5.41,2.99-1.35,6.36-2.02,10.12-2.02,4.51,0,8.45,.94,11.81,2.82,3.36,1.88,5.86,4.37,7.5,7.47l-9.89,7.03c-.58-1.55-1.4-2.74-2.49-3.58-1.08-.84-2.26-1.43-3.52-1.76-1.26-.33-2.49-.5-3.68-.5-1.86,0-3.46,.37-4.81,1.1-1.35,.73-2.46,1.69-3.32,2.89-.86,1.19-1.5,2.52-1.92,3.98-.42,1.46-.63,2.92-.63,4.38,0,1.64,.24,3.21,.73,4.71,.49,1.5,1.19,2.84,2.12,4.01,.93,1.17,2.07,2.09,3.42,2.75,1.35,.66,2.86,1,4.55,1,1.19,0,2.41-.19,3.65-.56,1.24-.38,2.37-.98,3.38-1.83,1.02-.84,1.79-1.97,2.32-3.38l10.55,6.3c-.93,2.3-2.48,4.27-4.65,5.91Zm48.55-2.62c-.88,1.73-2.04,3.16-3.49,4.29-1.45,1.13-3.12,1.97-5.02,2.53-1.9,.55-3.85,.83-5.86,.83-2.86,0-5.62-.55-8.29-1.66-2.67-1.11-4.88-2.75-6.62-4.93l4.93-4.16c1.07,1.58,2.5,2.86,4.29,3.84s3.73,1.47,5.82,1.47c1.07,0,2.13-.15,3.2-.45,1.07-.3,2.04-.77,2.91-1.41,.87-.64,1.59-1.44,2.14-2.4s.83-2.12,.83-3.49-.29-2.51-.86-3.42c-.58-.92-1.36-1.7-2.34-2.34-.98-.64-2.12-1.18-3.42-1.63-1.3-.45-2.68-.91-4.13-1.38-1.45-.43-2.88-.95-4.29-1.57-1.41-.62-2.67-1.41-3.78-2.37-1.11-.96-2.01-2.14-2.69-3.55-.68-1.41-1.02-3.16-1.02-5.25,0-2.26,.46-4.2,1.38-5.82,.92-1.62,2.11-2.97,3.58-4.03,1.47-1.07,3.14-1.84,4.99-2.34,1.86-.49,3.72-.74,5.6-.74,2.65,0,5.12,.47,7.42,1.41,2.3,.94,4.16,2.2,5.57,3.78l-4.48,4.35c-.9-1.24-2.11-2.25-3.65-3.04-1.54-.79-3.26-1.18-5.18-1.18-1.02,0-2.06,.14-3.1,.42-1.05,.28-2,.73-2.85,1.34-.85,.62-1.55,1.39-2.08,2.3-.53,.92-.8,2.02-.8,3.3s.24,2.27,.74,3.1c.49,.83,1.15,1.54,1.98,2.11,.83,.58,1.81,1.07,2.94,1.47,1.13,.41,2.34,.82,3.62,1.25,1.54,.47,3.09,1,4.67,1.6,1.58,.6,3.01,1.39,4.29,2.37,1.28,.98,2.32,2.21,3.13,3.68,.81,1.47,1.22,3.34,1.22,5.6s-.44,4.38-1.31,6.11Zm23.39-18.91h-8.06v15.76c0,1.83,.34,3.14,1.02,3.92,.68,.79,1.77,1.18,3.26,1.18,.55,0,1.15-.06,1.79-.18,.64-.12,1.22-.29,1.73-.53l.19,4.93c-.73,.26-1.53,.46-2.4,.61-.88,.15-1.78,.22-2.72,.22-2.86,0-5.05-.79-6.56-2.37-1.51-1.58-2.27-3.95-2.27-7.1V30.05h-5.82v-4.93h5.82v-8.7h5.95v8.7h8.06v4.93Zm53.58,32.95l-19.05-14.67-19.31,14.67,7.3-23.62-19.18-14.98h23.9l7.3-23.34,7.11,23.32h24.15l-19.52,15,7.29,23.63Zm33.07-32.89c-.85-.21-1.77-.32-2.75-.32-1.45,0-2.71,.27-3.78,.8-1.07,.53-1.95,1.25-2.66,2.14-.7,.9-1.23,1.93-1.57,3.1-.34,1.17-.51,2.4-.51,3.68v15.94h-6.02V31.65c0-.81-.02-1.86-.06-3.14-.04-1.28-.11-2.41-.19-3.39h5.7c.08,.77,.15,1.65,.19,2.66,.04,1,.06,1.82,.06,2.46h.19c.85-1.79,2.1-3.23,3.74-4.32,1.64-1.09,3.49-1.63,5.54-1.63,.94,0,1.73,.09,2.37,.26l-.26,5.57Zm34.24,25.34h-5.82v-4.8h-.13c-1.15,1.83-2.72,3.23-4.7,4.19-1.98,.96-4.06,1.44-6.24,1.44-2.35,0-4.46-.42-6.34-1.25-1.88-.83-3.48-1.97-4.8-3.42-1.32-1.45-2.35-3.16-3.07-5.12-.73-1.96-1.09-4.05-1.09-6.27s.36-4.3,1.09-6.24c.73-1.94,1.76-3.64,3.1-5.09,1.34-1.45,2.95-2.58,4.83-3.39,1.88-.81,3.95-1.22,6.21-1.22,2.47,0,4.63,.52,6.46,1.57,1.83,1.05,3.29,2.31,4.35,3.81h.13V7.07h6.02V55.46Zm27.9,0c-.09-.77-.15-1.63-.19-2.59-.04-.96-.06-1.76-.06-2.4h-.13c-.77,1.62-2.06,3-3.87,4.13s-3.83,1.7-6.05,1.7c-1.96,0-3.66-.32-5.09-.96-1.43-.64-2.6-1.53-3.52-2.66-.92-1.13-1.6-2.44-2.05-3.94-.45-1.49-.67-3.09-.67-4.8V25.12h6.02v16.77c0,1.24,.1,2.42,.29,3.55,.19,1.13,.54,2.12,1.06,2.98s1.22,1.54,2.11,2.05c.9,.51,2.05,.77,3.46,.77,2.43,0,4.39-.91,5.89-2.72,1.49-1.81,2.24-4.23,2.24-7.26V25.12h6.02v23.81c0,.81,.02,1.86,.06,3.14,.04,1.28,.11,2.41,.19,3.39h-5.7Zm34.5-4.42c-.68,1.24-1.59,2.25-2.72,3.04-1.13,.79-2.42,1.35-3.87,1.7-1.45,.34-2.94,.51-4.48,.51-2.3,0-4.55-.45-6.75-1.34-2.2-.9-4.02-2.26-5.47-4.1l4.29-3.65c.81,1.19,1.93,2.2,3.36,3.01s3,1.22,4.7,1.22c.77,0,1.5-.07,2.21-.22s1.34-.39,1.92-.74c.58-.34,1.03-.79,1.38-1.34s.51-1.26,.51-2.11c0-1.41-.67-2.45-2.02-3.14-1.34-.68-3.32-1.32-5.92-1.92-1.02-.26-2.06-.57-3.1-.93-1.05-.36-2-.86-2.85-1.5-.85-.64-1.55-1.44-2.08-2.4-.53-.96-.8-2.14-.8-3.55,0-1.62,.33-3.02,.99-4.19,.66-1.17,1.53-2.13,2.59-2.88,1.07-.75,2.28-1.3,3.65-1.66,1.37-.36,2.77-.54,4.22-.54,2.18,0,4.28,.43,6.3,1.28,2.03,.85,3.59,2.09,4.7,3.71l-4.16,3.52c-.68-1.11-1.64-2.02-2.88-2.72-1.24-.7-2.62-1.06-4.16-1.06-.68,0-1.37,.08-2.05,.22-.68,.15-1.29,.38-1.82,.7-.53,.32-.96,.73-1.28,1.22-.32,.49-.48,1.1-.48,1.82,0,1.28,.58,2.23,1.73,2.85,1.15,.62,2.88,1.18,5.18,1.7,1.45,.34,2.79,.75,4.03,1.22,1.24,.47,2.31,1.06,3.23,1.76,.92,.7,1.63,1.55,2.14,2.53s.77,2.13,.77,3.46c0,1.79-.34,3.31-1.02,4.54Zm24.7-20.99h-8.06v15.76c0,1.83,.34,3.14,1.02,3.92,.68,.79,1.77,1.18,3.26,1.18,.55,0,1.15-.06,1.79-.18,.64-.12,1.22-.29,1.73-.53l.19,4.93c-.73,.26-1.53,.46-2.4,.61-.88,.15-1.78,.22-2.72,.22-2.86,0-5.05-.79-6.56-2.37-1.51-1.58-2.27-3.95-2.27-7.1V30.05h-5.82v-4.93h5.82v-8.7h5.95v8.7h8.06v4.93Z"/></svg>