<?xml version="1.0" encoding="UTF-8"?><svg xmlns="http://www.w3.org/2000/svg" viewBox="0 0 363.4 85.08"><defs><style>.cls-1{letter-spacing:.02em;}.cls-2{font-family:RalewayRoman-Black, Raleway;font-size:66.36px;font-variation-settings:'wght' 900;}.cls-2,.cls-3,.cls-4{fill:#fff;}.cls-5{letter-spacing:-.07em;}.cls-6{letter-spacing:-.01em;}.cls-7{letter-spacing:-.02em;}.cls-8{letter-spacing:-.02em;}.cls-9{letter-spacing:-.02em;}.cls-10{letter-spacing:-.06em;}.cls-4{font-family:AvenirNext-DemiBold, 'Avenir Next';font-size:64px;}</style></defs><g id="Type"><text class="cls-2" transform="translate(0 56.74)"><tspan class="cls-5" x="0" y="0">K</tspan><tspan class="cls-7" x="41.27" y="0">C</tspan></text><text class="cls-4" transform="translate(98.85 55.7)"><tspan class="cls-9" x="0" y="0">S</tspan><tspan x="35.71" y="0">t</tspan></text><text class="cls-4" transform="translate(216.07 55.7)"><tspan class="cls-8" x="0" y="0">r</tspan><tspan class="cls-10" x="22.08" y="0">d</tspan><tspan class="cls-6" x="59.07" y="0">u</tspan><tspan class="cls-1" x="95.55" y="0">s</tspan><tspan x="125.57" y="0">t</tspan></text><path class="cls-3" d="M218.13,24.97h-23.28l-6.85-22.47-7.03,22.49h-23.04l18.48,14.45-7.04,22.77,18.61-14.14,18.36,14.14-7.03-22.77,18.81-14.46Zm-30.15,16.48l-8.83,6.71,3.34-10.8-8.77-6.85h10.93l3.34-10.67,3.25,10.66h11.04l-8.92,6.86,3.34,10.8-8.71-6.71Z"/></g><g id="Type_copy"><g id="KC"><path class="cls-3" d="M4.05,56.74V9.62h12.94V27.54L31.32,9.62h14.6L28.8,30.72l18.31,26.01h-14.86l-11.68-17.32-3.58,3.72v13.6H4.05Z"/><path class="cls-3" d="M42.73,32.71c0-2.88,.54-5.7,1.63-8.46,1.08-2.76,2.67-5.28,4.74-7.53,2.08-2.26,4.61-4.06,7.6-5.41,2.99-1.35,6.36-2.02,10.12-2.02,4.51,0,8.45,.94,11.81,2.82,3.36,1.88,5.86,4.37,7.5,7.47l-9.89,7.03c-.58-1.55-1.4-2.74-2.49-3.58-1.08-.84-2.26-1.43-3.52-1.76-1.26-.33-2.49-.5-3.68-.5-1.86,0-3.46,.37-4.81,1.1-1.35,.73-2.46,1.69-3.32,2.89-.86,1.19-1.5,2.52-1.92,3.98-.42,1.46-.63,2.92-.63,4.38,0,1.64,.24,3.21,.73,4.71,.49,1.5,1.19,2.84,2.12,4.01,.93,1.17,2.07,2.09,3.42,2.75,1.35,.66,2.86,1,4.55,1,1.19,0,2.41-.19,3.65-.56,1.24-.38,2.37-.98,3.38-1.83,1.02-.84,1.79-1.97,2.32-3.38l10.55,6.3c-.93,2.3-2.48,4.27-4.65,5.91-2.17,1.64-4.62,2.89-7.37,3.75-2.74,.86-5.46,1.29-8.16,1.29-3.5,0-6.69-.7-9.59-2.09-2.9-1.39-5.4-3.25-7.5-5.57-2.1-2.32-3.73-4.93-4.88-7.83-1.15-2.9-1.73-5.85-1.73-8.86Z"/></g><g id="St"><path class="cls-3" d="M126.95,19.86c-.85-1.11-2.06-2.04-3.62-2.78-1.56-.75-3.13-1.12-4.7-1.12-.94,0-1.88,.12-2.82,.35-.94,.23-1.79,.6-2.56,1.09-.77,.49-1.4,1.13-1.89,1.92-.49,.79-.74,1.74-.74,2.85,0,1.02,.21,1.9,.64,2.62,.43,.73,1.01,1.34,1.76,1.86,.75,.51,1.65,.96,2.72,1.34,1.07,.38,2.24,.77,3.52,1.15,1.45,.47,2.95,1,4.51,1.6,1.56,.6,2.99,1.39,4.29,2.37,1.3,.98,2.37,2.22,3.2,3.71s1.25,3.35,1.25,5.57c0,2.43-.45,4.56-1.34,6.37-.9,1.81-2.09,3.32-3.58,4.51-1.49,1.2-3.24,2.09-5.25,2.69s-4.12,.9-6.34,.9c-2.94,0-5.82-.54-8.64-1.63-2.82-1.09-5.12-2.7-6.91-4.83l5.76-5.38c1.11,1.54,2.59,2.75,4.45,3.65,1.86,.9,3.68,1.34,5.47,1.34,.94,0,1.9-.12,2.88-.35,.98-.23,1.87-.63,2.66-1.18,.79-.55,1.43-1.25,1.92-2.08s.74-1.87,.74-3.1-.28-2.19-.83-2.98c-.55-.79-1.3-1.47-2.24-2.05-.94-.58-2.05-1.08-3.33-1.5-1.28-.43-2.62-.87-4.03-1.34-1.37-.43-2.73-.94-4.1-1.54-1.37-.6-2.59-1.39-3.68-2.37-1.09-.98-1.97-2.19-2.66-3.62-.68-1.43-1.02-3.21-1.02-5.34,0-2.3,.48-4.29,1.44-5.95s2.22-3.04,3.78-4.13c1.56-1.09,3.33-1.9,5.31-2.43,1.98-.53,4-.8,6.05-.8,2.3,0,4.64,.41,7.01,1.22,2.37,.81,4.43,2.03,6.18,3.65l-5.25,5.76Z"/><path class="cls-3" d="M134.75,31.13v-6.14h5.38v-8.9h7.55v8.9h7.68v6.14h-7.68v14.27c0,1.37,.25,2.5,.74,3.39,.49,.9,1.59,1.34,3.3,1.34,.51,0,1.07-.05,1.66-.16,.6-.11,1.13-.27,1.6-.48l.26,6.02c-.68,.26-1.49,.46-2.43,.61-.94,.15-1.83,.22-2.69,.22-2.05,0-3.71-.29-4.99-.86-1.28-.58-2.29-1.36-3.04-2.37s-1.26-2.15-1.54-3.46c-.28-1.3-.42-2.7-.42-4.19v-14.34h-5.38Z"/></g><g id="rdust"><path class="cls-3" d="M220.68,24.98h7.36v5.12h.13c.85-1.79,2.05-3.24,3.58-4.35,1.54-1.11,3.33-1.66,5.38-1.66,.3,0,.62,.01,.96,.03,.34,.02,.64,.08,.9,.16v7.04c-.51-.13-.95-.21-1.31-.26-.36-.04-.71-.06-1.06-.06-1.75,0-3.16,.32-4.22,.96-1.07,.64-1.9,1.41-2.5,2.3-.6,.9-1,1.81-1.22,2.75-.21,.94-.32,1.69-.32,2.24v16.45h-7.68V24.98Z"/><path class="cls-3" d="M273.99,55.7h-7.3v-4.61h-.13c-1.07,1.79-2.55,3.16-4.45,4.1-1.9,.94-3.94,1.41-6.11,1.41-2.35,0-4.45-.44-6.3-1.31-1.86-.87-3.43-2.05-4.74-3.52-1.3-1.47-2.3-3.2-3.01-5.18-.7-1.98-1.06-4.11-1.06-6.37s.36-4.37,1.09-6.34c.73-1.96,1.75-3.67,3.07-5.12,1.32-1.45,2.9-2.59,4.74-3.42,1.83-.83,3.84-1.25,6.02-1.25,1.41,0,2.67,.16,3.78,.48,1.11,.32,2.08,.72,2.91,1.18,.83,.47,1.55,.98,2.14,1.54,.6,.56,1.09,1.09,1.47,1.6h.19V7.32h7.68V55.7Zm-25.28-15.49c0,1.2,.18,2.39,.54,3.58,.36,1.2,.91,2.26,1.63,3.2,.72,.94,1.64,1.71,2.75,2.3,1.11,.6,2.41,.9,3.9,.9,1.41,0,2.67-.29,3.78-.86,1.11-.58,2.06-1.33,2.85-2.27,.79-.94,1.39-1.99,1.79-3.17,.41-1.17,.61-2.36,.61-3.55s-.2-2.39-.61-3.58c-.41-1.19-1-2.26-1.79-3.2-.79-.94-1.74-1.71-2.85-2.3-1.11-.6-2.37-.9-3.78-.9-1.49,0-2.79,.29-3.9,.86-1.11,.58-2.03,1.33-2.75,2.27-.73,.94-1.27,2-1.63,3.17-.36,1.17-.54,2.36-.54,3.55Z"/><path class="cls-3" d="M307.78,55.7h-7.3v-4.93h-.13c-.68,1.54-1.87,2.89-3.55,4.06-1.69,1.17-3.68,1.76-5.98,1.76-2.01,0-3.72-.35-5.15-1.06-1.43-.7-2.6-1.63-3.52-2.78-.92-1.15-1.59-2.47-2.02-3.97-.43-1.49-.64-3.03-.64-4.61V24.98h7.68v17.02c0,.9,.06,1.83,.19,2.82s.41,1.87,.83,2.66c.43,.79,1.01,1.44,1.76,1.95,.75,.51,1.74,.77,2.98,.77s2.25-.25,3.17-.74c.92-.49,1.66-1.12,2.24-1.89,.58-.77,1.01-1.65,1.31-2.66,.3-1,.45-2.02,.45-3.04V24.98h7.68v30.72Z"/><path class="cls-3" d="M333.06,33.18c-.68-.9-1.62-1.67-2.82-2.34-1.2-.66-2.5-.99-3.9-.99-1.24,0-2.37,.26-3.39,.77-1.02,.51-1.54,1.37-1.54,2.56s.57,2.04,1.7,2.53c1.13,.49,2.78,.99,4.96,1.5,1.15,.26,2.31,.6,3.49,1.02,1.17,.43,2.24,.99,3.2,1.7s1.74,1.58,2.34,2.62c.6,1.05,.9,2.32,.9,3.81,0,1.88-.35,3.47-1.06,4.77-.7,1.3-1.64,2.36-2.82,3.17-1.17,.81-2.54,1.4-4.1,1.76-1.56,.36-3.17,.54-4.83,.54-2.39,0-4.72-.44-6.98-1.31-2.26-.87-4.14-2.12-5.63-3.74l5.06-4.74c.85,1.11,1.96,2.03,3.33,2.75,1.37,.73,2.88,1.09,4.54,1.09,.55,0,1.12-.06,1.7-.19s1.11-.33,1.6-.61c.49-.28,.89-.65,1.18-1.12,.3-.47,.45-1.04,.45-1.73,0-1.28-.59-2.2-1.76-2.75-1.17-.55-2.93-1.11-5.28-1.66-1.15-.26-2.27-.59-3.36-.99-1.09-.41-2.06-.94-2.91-1.6-.85-.66-1.54-1.48-2.05-2.46s-.77-2.2-.77-3.65c0-1.71,.35-3.18,1.06-4.42,.7-1.24,1.63-2.25,2.78-3.04,1.15-.79,2.45-1.38,3.9-1.76,1.45-.38,2.94-.58,4.48-.58,2.22,0,4.38,.38,6.5,1.15,2.11,.77,3.79,1.94,5.02,3.52l-4.99,4.42Z"/><path class="cls-3" d="M341.83,31.13v-6.14h5.38v-8.9h7.55v8.9h7.68v6.14h-7.68v14.27c0,1.37,.25,2.5,.74,3.39,.49,.9,1.59,1.34,3.3,1.34,.51,0,1.07-.05,1.66-.16,.6-.11,1.13-.27,1.6-.48l.26,6.02c-.68,.26-1.49,.46-2.43,.61-.94,.15-1.83,.22-2.69,.22-2.05,0-3.71-.29-4.99-.86-1.28-.58-2.29-1.36-3.04-2.37s-1.26-2.15-1.54-3.46c-.28-1.3-.42-2.7-.42-4.19v-14.34h-5.38Z"/></g><path class="cls-3" d="M218.13,24.97h-23.28l-6.85-22.47-7.03,22.49h-23.04l18.48,14.45-7.04,22.77,18.61-14.14,18.36,14.14-7.03-22.77,18.81-14.46Zm-30.15,16.48l-8.83,6.71,3.34-10.8-8.77-6.85h10.93l3.34-10.67,3.25,10.66h11.04l-8.92,6.86,3.34,10.8-8.71-6.71Z"/></g></svg>