<svg width="50" height="50" viewBox="0 0 50 50" fill="none" xmlns="http://www.w3.org/2000/svg">
<path d="M8 3.00977C4.53 3.00977 2.00977 5.08922 2.00977 7.94922C2.00977 10.8192 4.59 12.9902 8 12.9902C11.47 12.9902 13.9902 10.8706 13.9902 7.89062C13.8302 5.02063 11.36 3.00977 8 3.00977ZM3 15C2.45 15 2 15.45 2 16V45C2 45.55 2.45 46 3 46H13C13.55 46 14 45.55 14 45V16C14 15.45 13.55 15 13 15H3ZM18 15C17.45 15 17 15.45 17 16V45C17 45.55 17.45 46 18 46H27C27.552 46 28 45.552 28 45V30V29.75V29.5C28 27.13 29.8206 25.1995 32.1406 25.0195C32.2606 24.9995 32.38 25 32.5 25C32.62 25 32.7394 24.9995 32.8594 25.0195C35.1794 25.1995 37 27.13 37 29.5V45C37 45.552 37.448 46 38 46H47C47.55 46 48 45.55 48 45V28C48 21.53 44.5291 15 36.7891 15C33.2691 15 30.61 16.3602 29 17.4902V16C29 15.45 28.55 15 28 15H18Z" fill="white" fill-opacity="0.5"/>
</svg>
